<svg width="375" height="234" viewBox="0 0 375 234" fill="none" xmlns="http://www.w3.org/2000/svg">
<rect width="374.664" height="233.717" rx="15" fill="#F5F5F5"/>
<mask id="mask0_548_2101" style="mask-type:alpha" maskUnits="userSpaceOnUse" x="0" y="0" width="375" height="234">
<rect width="374.664" height="233.717" rx="15" fill="#F5F5F5"/>
</mask>
<g mask="url(#mask0_548_2101)">
<rect x="30.2852" y="64.6094" width="318.715" height="111" rx="8" fill="white" stroke="#C5EAB2" stroke-width="4" stroke-dasharray="5 5"/>
<path d="M73.7073 111.649C73.4673 111.649 73.2753 111.577 73.1313 111.433C72.9993 111.289 72.9333 111.091 72.9333 110.839V99.5534C72.9333 99.2774 72.9993 99.0674 73.1313 98.9234C73.2633 98.7794 73.4373 98.7074 73.6533 98.7074C73.8573 98.7074 74.0133 98.7434 74.1213 98.8154C74.2293 98.8874 74.3493 99.0134 74.4813 99.1934L82.1133 109.309H81.6633V99.5174C81.6633 99.2534 81.7293 99.0554 81.8613 98.9234C82.0053 98.7794 82.2033 98.7074 82.4553 98.7074C82.7073 98.7074 82.8993 98.7794 83.0313 98.9234C83.1633 99.0554 83.2293 99.2534 83.2293 99.5174V110.839C83.2293 111.091 83.1633 111.289 83.0313 111.433C82.9113 111.577 82.7493 111.649 82.5453 111.649C82.3533 111.649 82.1913 111.607 82.0593 111.523C81.9393 111.451 81.8133 111.325 81.6813 111.145L74.0673 101.029H74.4813V110.839C74.4813 111.091 74.4153 111.289 74.2833 111.433C74.1513 111.577 73.9593 111.649 73.7073 111.649ZM89.7851 111.685C88.9211 111.685 88.1711 111.499 87.5351 111.127C86.8991 110.755 86.4071 110.227 86.0591 109.543C85.7111 108.859 85.5371 108.055 85.5371 107.131C85.5371 106.435 85.6331 105.811 85.8251 105.259C86.0291 104.695 86.3171 104.215 86.6891 103.819C87.0611 103.423 87.5051 103.123 88.0211 102.919C88.5491 102.703 89.1371 102.595 89.7851 102.595C90.6491 102.595 91.3991 102.781 92.0351 103.153C92.6711 103.525 93.1631 104.053 93.5111 104.737C93.8591 105.409 94.0331 106.207 94.0331 107.131C94.0331 107.827 93.9311 108.457 93.7271 109.021C93.5351 109.585 93.2531 110.065 92.8811 110.461C92.5091 110.857 92.0591 111.163 91.5311 111.379C91.0151 111.583 90.4331 111.685 89.7851 111.685ZM89.7851 110.389C90.3131 110.389 90.7691 110.263 91.1531 110.011C91.5491 109.759 91.8491 109.393 92.0531 108.913C92.2691 108.433 92.3771 107.839 92.3771 107.131C92.3771 106.075 92.1431 105.271 91.6751 104.719C91.2071 104.167 90.5771 103.891 89.7851 103.891C89.2691 103.891 88.8131 104.017 88.4171 104.269C88.0331 104.509 87.7331 104.869 87.5171 105.349C87.3011 105.829 87.1931 106.423 87.1931 107.131C87.1931 108.187 87.4271 108.997 87.8951 109.561C88.3751 110.113 89.0051 110.389 89.7851 110.389ZM99.1048 111.649C98.8768 111.649 98.6788 111.595 98.5108 111.487C98.3428 111.367 98.2108 111.175 98.1148 110.911L95.4328 103.765C95.3488 103.537 95.3248 103.339 95.3608 103.171C95.3968 103.003 95.4808 102.871 95.6128 102.775C95.7448 102.679 95.9188 102.631 96.1348 102.631C96.3388 102.631 96.5008 102.679 96.6208 102.775C96.7408 102.871 96.8428 103.045 96.9268 103.297L99.3748 110.209H98.9428L101.463 103.261C101.547 103.045 101.655 102.889 101.787 102.793C101.931 102.685 102.105 102.631 102.309 102.631C102.525 102.631 102.705 102.685 102.849 102.793C102.993 102.889 103.095 103.045 103.155 103.261L105.639 110.209H105.225L107.709 103.261C107.793 103.021 107.901 102.859 108.033 102.775C108.165 102.679 108.327 102.631 108.519 102.631C108.735 102.631 108.897 102.685 109.005 102.793C109.113 102.901 109.173 103.045 109.185 103.225C109.209 103.393 109.185 103.573 109.113 103.765L106.431 110.911C106.347 111.163 106.215 111.349 106.035 111.469C105.867 111.589 105.669 111.649 105.441 111.649C105.213 111.649 105.009 111.589 104.829 111.469C104.661 111.349 104.529 111.163 104.433 110.911L101.859 103.855H102.687L100.113 110.911C100.017 111.163 99.8848 111.349 99.7168 111.469C99.5488 111.589 99.3448 111.649 99.1048 111.649ZM117.888 114.889C117.696 114.889 117.534 114.835 117.402 114.727C117.282 114.631 117.21 114.493 117.186 114.313C117.174 114.145 117.21 113.965 117.294 113.773L118.518 111.001V111.685L115.116 103.765C115.032 103.561 115.002 103.375 115.026 103.207C115.05 103.039 115.128 102.901 115.26 102.793C115.404 102.685 115.596 102.631 115.836 102.631C116.04 102.631 116.202 102.679 116.322 102.775C116.442 102.871 116.556 103.039 116.664 103.279L119.49 110.245H118.986L121.866 103.279C121.962 103.039 122.076 102.871 122.208 102.775C122.34 102.679 122.52 102.631 122.748 102.631C122.952 102.631 123.108 102.685 123.216 102.793C123.336 102.901 123.408 103.039 123.432 103.207C123.456 103.375 123.42 103.555 123.324 103.747L118.788 114.241C118.668 114.493 118.542 114.661 118.41 114.745C118.29 114.841 118.116 114.889 117.888 114.889ZM128.756 111.685C127.892 111.685 127.142 111.499 126.506 111.127C125.87 110.755 125.378 110.227 125.03 109.543C124.682 108.859 124.508 108.055 124.508 107.131C124.508 106.435 124.604 105.811 124.796 105.259C125 104.695 125.288 104.215 125.66 103.819C126.032 103.423 126.476 103.123 126.992 102.919C127.52 102.703 128.108 102.595 128.756 102.595C129.62 102.595 130.37 102.781 131.006 103.153C131.642 103.525 132.134 104.053 132.482 104.737C132.83 105.409 133.004 106.207 133.004 107.131C133.004 107.827 132.902 108.457 132.698 109.021C132.506 109.585 132.224 110.065 131.852 110.461C131.48 110.857 131.03 111.163 130.502 111.379C129.986 111.583 129.404 111.685 128.756 111.685ZM128.756 110.389C129.284 110.389 129.74 110.263 130.124 110.011C130.52 109.759 130.82 109.393 131.024 108.913C131.24 108.433 131.348 107.839 131.348 107.131C131.348 106.075 131.114 105.271 130.646 104.719C130.178 104.167 129.548 103.891 128.756 103.891C128.24 103.891 127.784 104.017 127.388 104.269C127.004 104.509 126.704 104.869 126.488 105.349C126.272 105.829 126.164 106.423 126.164 107.131C126.164 108.187 126.398 108.997 126.866 109.561C127.346 110.113 127.976 110.389 128.756 110.389ZM138.234 111.685C137.526 111.685 136.932 111.553 136.452 111.289C135.984 111.025 135.636 110.635 135.408 110.119C135.18 109.603 135.066 108.955 135.066 108.175V103.459C135.066 103.183 135.132 102.979 135.264 102.847C135.408 102.703 135.612 102.631 135.876 102.631C136.14 102.631 136.344 102.703 136.488 102.847C136.632 102.979 136.704 103.183 136.704 103.459V108.175C136.704 108.919 136.854 109.471 137.154 109.831C137.454 110.179 137.928 110.353 138.576 110.353C139.296 110.353 139.878 110.113 140.322 109.633C140.778 109.153 141.006 108.517 141.006 107.725V103.459C141.006 103.183 141.072 102.979 141.204 102.847C141.348 102.703 141.552 102.631 141.816 102.631C142.08 102.631 142.284 102.703 142.428 102.847C142.572 102.979 142.644 103.183 142.644 103.459V110.803C142.644 111.367 142.38 111.649 141.852 111.649C141.588 111.649 141.384 111.577 141.24 111.433C141.108 111.289 141.042 111.079 141.042 110.803V109.237L141.276 109.543C141.036 110.239 140.646 110.773 140.106 111.145C139.578 111.505 138.954 111.685 138.234 111.685ZM153.771 111.685C152.883 111.685 152.115 111.499 151.467 111.127C150.819 110.743 150.321 110.209 149.973 109.525C149.625 108.829 149.451 108.013 149.451 107.077C149.451 106.381 149.547 105.757 149.739 105.205C149.943 104.653 150.231 104.185 150.603 103.801C150.975 103.405 151.425 103.105 151.953 102.901C152.493 102.697 153.099 102.595 153.771 102.595C154.191 102.595 154.635 102.661 155.103 102.793C155.571 102.925 156.003 103.141 156.399 103.441C156.531 103.537 156.615 103.651 156.651 103.783C156.687 103.903 156.687 104.029 156.651 104.161C156.627 104.293 156.567 104.407 156.471 104.503C156.387 104.587 156.273 104.635 156.129 104.647C155.997 104.659 155.853 104.617 155.697 104.521C155.409 104.305 155.103 104.149 154.779 104.053C154.467 103.957 154.167 103.909 153.879 103.909C153.435 103.909 153.039 103.981 152.691 104.125C152.355 104.269 152.067 104.479 151.827 104.755C151.599 105.019 151.425 105.349 151.305 105.745C151.185 106.129 151.125 106.579 151.125 107.095C151.125 108.115 151.365 108.919 151.845 109.507C152.325 110.083 153.003 110.371 153.879 110.371C154.167 110.371 154.467 110.329 154.779 110.245C155.091 110.149 155.397 109.993 155.697 109.777C155.853 109.681 155.997 109.645 156.129 109.669C156.261 109.681 156.369 109.735 156.453 109.831C156.549 109.915 156.609 110.023 156.633 110.155C156.657 110.275 156.645 110.401 156.597 110.533C156.561 110.665 156.477 110.773 156.345 110.857C155.961 111.145 155.541 111.355 155.085 111.487C154.629 111.619 154.191 111.685 153.771 111.685ZM161.06 111.685C160.46 111.685 159.914 111.565 159.422 111.325C158.942 111.085 158.564 110.761 158.288 110.353C158.024 109.945 157.892 109.489 157.892 108.985C157.892 108.337 158.054 107.827 158.378 107.455C158.702 107.083 159.248 106.819 160.016 106.663C160.784 106.495 161.816 106.411 163.112 106.411H163.958V107.455H163.148C162.224 107.455 161.492 107.497 160.952 107.581C160.424 107.665 160.052 107.815 159.836 108.031C159.62 108.235 159.512 108.523 159.512 108.895C159.512 109.363 159.674 109.747 159.998 110.047C160.334 110.347 160.79 110.497 161.366 110.497C161.822 110.497 162.224 110.389 162.572 110.173C162.92 109.945 163.196 109.645 163.4 109.273C163.604 108.889 163.706 108.451 163.706 107.959V105.889C163.706 105.181 163.562 104.671 163.274 104.359C162.986 104.035 162.5 103.873 161.816 103.873C161.42 103.873 161.012 103.927 160.592 104.035C160.172 104.143 159.734 104.311 159.278 104.539C159.098 104.623 158.942 104.653 158.81 104.629C158.678 104.593 158.57 104.521 158.486 104.413C158.414 104.293 158.372 104.167 158.36 104.035C158.36 103.891 158.39 103.753 158.45 103.621C158.522 103.489 158.642 103.393 158.81 103.333C159.338 103.069 159.86 102.883 160.376 102.775C160.904 102.655 161.396 102.595 161.852 102.595C162.632 102.595 163.274 102.721 163.778 102.973C164.282 103.213 164.66 103.591 164.912 104.107C165.164 104.611 165.29 105.259 165.29 106.051V110.803C165.29 111.079 165.224 111.289 165.092 111.433C164.96 111.577 164.768 111.649 164.516 111.649C164.276 111.649 164.084 111.577 163.94 111.433C163.808 111.289 163.742 111.079 163.742 110.803V109.525H163.904C163.808 109.969 163.628 110.353 163.364 110.677C163.1 111.001 162.77 111.253 162.374 111.433C161.99 111.601 161.552 111.685 161.06 111.685ZM168.678 111.649C168.426 111.649 168.228 111.577 168.084 111.433C167.94 111.289 167.868 111.079 167.868 110.803V103.459C167.868 103.183 167.94 102.979 168.084 102.847C168.228 102.703 168.426 102.631 168.678 102.631C168.93 102.631 169.122 102.703 169.254 102.847C169.398 102.979 169.47 103.183 169.47 103.459V104.935L169.272 104.665C169.524 103.981 169.932 103.465 170.496 103.117C171.072 102.769 171.726 102.595 172.458 102.595C173.166 102.595 173.748 102.721 174.204 102.973C174.66 103.225 175.002 103.609 175.23 104.125C175.458 104.641 175.572 105.295 175.572 106.087V110.803C175.572 111.079 175.5 111.289 175.356 111.433C175.224 111.577 175.026 111.649 174.762 111.649C174.498 111.649 174.294 111.577 174.15 111.433C174.006 111.289 173.934 111.079 173.934 110.803V106.177C173.934 105.397 173.784 104.827 173.484 104.467C173.184 104.107 172.704 103.927 172.044 103.927C171.276 103.927 170.658 104.167 170.19 104.647C169.734 105.115 169.506 105.751 169.506 106.555V110.803C169.506 111.367 169.23 111.649 168.678 111.649ZM183.672 114.889C183.42 114.889 183.222 114.817 183.078 114.673C182.934 114.529 182.862 114.325 182.862 114.061V103.459C182.862 103.183 182.934 102.979 183.078 102.847C183.222 102.703 183.42 102.631 183.672 102.631C183.936 102.631 184.134 102.703 184.266 102.847C184.41 102.979 184.482 103.183 184.482 103.459V105.097L184.284 104.773C184.476 104.113 184.854 103.585 185.418 103.189C185.982 102.793 186.66 102.595 187.452 102.595C188.232 102.595 188.91 102.781 189.486 103.153C190.062 103.513 190.512 104.035 190.836 104.719C191.16 105.391 191.322 106.195 191.322 107.131C191.322 108.055 191.16 108.865 190.836 109.561C190.524 110.245 190.074 110.773 189.486 111.145C188.91 111.505 188.232 111.685 187.452 111.685C186.672 111.685 186 111.487 185.436 111.091C184.872 110.695 184.494 110.173 184.302 109.525H184.5V114.061C184.5 114.325 184.428 114.529 184.284 114.673C184.14 114.817 183.936 114.889 183.672 114.889ZM187.074 110.389C187.59 110.389 188.04 110.263 188.424 110.011C188.82 109.759 189.126 109.393 189.342 108.913C189.558 108.433 189.666 107.839 189.666 107.131C189.666 106.075 189.432 105.271 188.964 104.719C188.496 104.167 187.866 103.891 187.074 103.891C186.546 103.891 186.084 104.017 185.688 104.269C185.304 104.509 185.004 104.869 184.788 105.349C184.584 105.829 184.482 106.423 184.482 107.131C184.482 108.187 184.716 108.997 185.184 109.561C185.652 110.113 186.282 110.389 187.074 110.389ZM196.216 111.685C195.616 111.685 195.07 111.565 194.578 111.325C194.098 111.085 193.72 110.761 193.444 110.353C193.18 109.945 193.048 109.489 193.048 108.985C193.048 108.337 193.21 107.827 193.534 107.455C193.858 107.083 194.404 106.819 195.172 106.663C195.94 106.495 196.972 106.411 198.268 106.411H199.114V107.455H198.304C197.38 107.455 196.648 107.497 196.108 107.581C195.58 107.665 195.208 107.815 194.992 108.031C194.776 108.235 194.668 108.523 194.668 108.895C194.668 109.363 194.83 109.747 195.154 110.047C195.49 110.347 195.946 110.497 196.522 110.497C196.978 110.497 197.38 110.389 197.728 110.173C198.076 109.945 198.352 109.645 198.556 109.273C198.76 108.889 198.862 108.451 198.862 107.959V105.889C198.862 105.181 198.718 104.671 198.43 104.359C198.142 104.035 197.656 103.873 196.972 103.873C196.576 103.873 196.168 103.927 195.748 104.035C195.328 104.143 194.89 104.311 194.434 104.539C194.254 104.623 194.098 104.653 193.966 104.629C193.834 104.593 193.726 104.521 193.642 104.413C193.57 104.293 193.528 104.167 193.516 104.035C193.516 103.891 193.546 103.753 193.606 103.621C193.678 103.489 193.798 103.393 193.966 103.333C194.494 103.069 195.016 102.883 195.532 102.775C196.06 102.655 196.552 102.595 197.008 102.595C197.788 102.595 198.43 102.721 198.934 102.973C199.438 103.213 199.816 103.591 200.068 104.107C200.32 104.611 200.446 105.259 200.446 106.051V110.803C200.446 111.079 200.38 111.289 200.248 111.433C200.116 111.577 199.924 111.649 199.672 111.649C199.432 111.649 199.24 111.577 199.096 111.433C198.964 111.289 198.898 111.079 198.898 110.803V109.525H199.06C198.964 109.969 198.784 110.353 198.52 110.677C198.256 111.001 197.926 111.253 197.53 111.433C197.146 111.601 196.708 111.685 196.216 111.685ZM206.048 111.685C205.508 111.685 204.962 111.625 204.41 111.505C203.87 111.373 203.36 111.151 202.88 110.839C202.748 110.755 202.652 110.653 202.592 110.533C202.544 110.401 202.526 110.275 202.538 110.155C202.562 110.023 202.616 109.909 202.7 109.813C202.784 109.717 202.886 109.663 203.006 109.651C203.138 109.627 203.276 109.657 203.42 109.741C203.888 110.005 204.338 110.191 204.77 110.299C205.214 110.407 205.652 110.461 206.084 110.461C206.744 110.461 207.242 110.341 207.578 110.101C207.914 109.861 208.082 109.543 208.082 109.147C208.082 108.811 207.968 108.553 207.74 108.373C207.524 108.181 207.182 108.037 206.714 107.941L205.04 107.599C204.296 107.431 203.732 107.155 203.348 106.771C202.976 106.375 202.79 105.871 202.79 105.259C202.79 104.719 202.934 104.251 203.222 103.855C203.522 103.447 203.936 103.135 204.464 102.919C204.992 102.703 205.598 102.595 206.282 102.595C206.81 102.595 207.308 102.667 207.776 102.811C208.256 102.943 208.688 103.147 209.072 103.423C209.216 103.507 209.306 103.615 209.342 103.747C209.39 103.867 209.396 103.993 209.36 104.125C209.336 104.245 209.282 104.347 209.198 104.431C209.114 104.515 209.006 104.569 208.874 104.593C208.742 104.605 208.598 104.569 208.442 104.485C208.094 104.245 207.734 104.077 207.362 103.981C207.002 103.873 206.642 103.819 206.282 103.819C205.634 103.819 205.142 103.945 204.806 104.197C204.482 104.449 204.32 104.779 204.32 105.187C204.32 105.499 204.416 105.757 204.608 105.961C204.812 106.165 205.13 106.315 205.562 106.411L207.236 106.753C208.016 106.921 208.604 107.191 209 107.563C209.396 107.923 209.594 108.415 209.594 109.039C209.594 109.855 209.27 110.503 208.622 110.983C207.986 111.451 207.128 111.685 206.048 111.685ZM215.273 111.685C214.565 111.685 213.971 111.559 213.491 111.307C213.023 111.055 212.669 110.689 212.429 110.209C212.201 109.729 212.087 109.141 212.087 108.445V104.017H210.935C210.719 104.017 210.551 103.963 210.431 103.855C210.311 103.735 210.251 103.579 210.251 103.387C210.251 103.183 210.311 103.027 210.431 102.919C210.551 102.811 210.719 102.757 210.935 102.757H212.087V100.795C212.087 100.519 212.159 100.315 212.303 100.183C212.447 100.039 212.651 99.9674 212.915 99.9674C213.179 99.9674 213.377 100.039 213.509 100.183C213.653 100.315 213.725 100.519 213.725 100.795V102.757H215.903C216.131 102.757 216.305 102.811 216.425 102.919C216.545 103.027 216.605 103.183 216.605 103.387C216.605 103.579 216.545 103.735 216.425 103.855C216.305 103.963 216.131 104.017 215.903 104.017H213.725V108.301C213.725 108.961 213.863 109.459 214.139 109.795C214.415 110.131 214.871 110.299 215.507 110.299C215.735 110.299 215.927 110.281 216.083 110.245C216.239 110.197 216.377 110.173 216.497 110.173C216.605 110.161 216.695 110.197 216.767 110.281C216.851 110.365 216.893 110.521 216.893 110.749C216.893 110.917 216.863 111.073 216.803 111.217C216.755 111.349 216.653 111.439 216.497 111.487C216.353 111.535 216.161 111.577 215.921 111.613C215.681 111.661 215.465 111.685 215.273 111.685ZM222.051 111.685C221.103 111.685 220.287 111.505 219.603 111.145C218.931 110.773 218.409 110.251 218.037 109.579C217.665 108.895 217.479 108.091 217.479 107.167C217.479 106.255 217.659 105.457 218.019 104.773C218.391 104.089 218.895 103.555 219.531 103.171C220.179 102.787 220.917 102.595 221.745 102.595C222.333 102.595 222.861 102.697 223.329 102.901C223.809 103.093 224.217 103.375 224.553 103.747C224.889 104.119 225.141 104.575 225.309 105.115C225.489 105.643 225.579 106.243 225.579 106.915C225.579 107.107 225.519 107.257 225.399 107.365C225.291 107.461 225.129 107.509 224.913 107.509H218.757V106.465H224.499L224.193 106.717C224.193 106.093 224.097 105.565 223.905 105.133C223.725 104.689 223.455 104.353 223.095 104.125C222.747 103.897 222.309 103.783 221.781 103.783C221.205 103.783 220.713 103.921 220.305 104.197C219.897 104.461 219.585 104.839 219.369 105.331C219.153 105.811 219.045 106.369 219.045 107.005V107.113C219.045 108.193 219.303 109.009 219.819 109.561C220.335 110.113 221.079 110.389 222.051 110.389C222.435 110.389 222.825 110.341 223.221 110.245C223.629 110.149 224.019 109.975 224.391 109.723C224.571 109.615 224.733 109.567 224.877 109.579C225.033 109.579 225.159 109.627 225.255 109.723C225.351 109.807 225.411 109.915 225.435 110.047C225.459 110.167 225.441 110.299 225.381 110.443C225.321 110.587 225.207 110.713 225.039 110.821C224.643 111.097 224.169 111.313 223.617 111.469C223.077 111.613 222.555 111.685 222.051 111.685ZM234.325 114.889C234.133 114.889 233.971 114.835 233.839 114.727C233.719 114.631 233.647 114.493 233.623 114.313C233.611 114.145 233.647 113.965 233.731 113.773L234.955 111.001V111.685L231.553 103.765C231.469 103.561 231.439 103.375 231.463 103.207C231.487 103.039 231.565 102.901 231.697 102.793C231.841 102.685 232.033 102.631 232.273 102.631C232.477 102.631 232.639 102.679 232.759 102.775C232.879 102.871 232.993 103.039 233.101 103.279L235.927 110.245H235.423L238.303 103.279C238.399 103.039 238.513 102.871 238.645 102.775C238.777 102.679 238.957 102.631 239.185 102.631C239.389 102.631 239.545 102.685 239.653 102.793C239.773 102.901 239.845 103.039 239.869 103.207C239.893 103.375 239.857 103.555 239.761 103.747L235.225 114.241C235.105 114.493 234.979 114.661 234.847 114.745C234.727 114.841 234.553 114.889 234.325 114.889ZM245.193 111.685C244.329 111.685 243.579 111.499 242.943 111.127C242.307 110.755 241.815 110.227 241.467 109.543C241.119 108.859 240.945 108.055 240.945 107.131C240.945 106.435 241.041 105.811 241.233 105.259C241.437 104.695 241.725 104.215 242.097 103.819C242.469 103.423 242.913 103.123 243.429 102.919C243.957 102.703 244.545 102.595 245.193 102.595C246.057 102.595 246.807 102.781 247.443 103.153C248.079 103.525 248.571 104.053 248.919 104.737C249.267 105.409 249.441 106.207 249.441 107.131C249.441 107.827 249.339 108.457 249.135 109.021C248.943 109.585 248.661 110.065 248.289 110.461C247.917 110.857 247.467 111.163 246.939 111.379C246.423 111.583 245.841 111.685 245.193 111.685ZM245.193 110.389C245.721 110.389 246.177 110.263 246.561 110.011C246.957 109.759 247.257 109.393 247.461 108.913C247.677 108.433 247.785 107.839 247.785 107.131C247.785 106.075 247.551 105.271 247.083 104.719C246.615 104.167 245.985 103.891 245.193 103.891C244.677 103.891 244.221 104.017 243.825 104.269C243.441 104.509 243.141 104.869 242.925 105.349C242.709 105.829 242.601 106.423 242.601 107.131C242.601 108.187 242.835 108.997 243.303 109.561C243.783 110.113 244.413 110.389 245.193 110.389ZM254.672 111.685C253.964 111.685 253.37 111.553 252.89 111.289C252.422 111.025 252.074 110.635 251.846 110.119C251.618 109.603 251.504 108.955 251.504 108.175V103.459C251.504 103.183 251.57 102.979 251.702 102.847C251.846 102.703 252.05 102.631 252.314 102.631C252.578 102.631 252.782 102.703 252.926 102.847C253.07 102.979 253.142 103.183 253.142 103.459V108.175C253.142 108.919 253.292 109.471 253.592 109.831C253.892 110.179 254.366 110.353 255.014 110.353C255.734 110.353 256.316 110.113 256.76 109.633C257.216 109.153 257.444 108.517 257.444 107.725V103.459C257.444 103.183 257.51 102.979 257.642 102.847C257.786 102.703 257.99 102.631 258.254 102.631C258.518 102.631 258.722 102.703 258.866 102.847C259.01 102.979 259.082 103.183 259.082 103.459V110.803C259.082 111.367 258.818 111.649 258.29 111.649C258.026 111.649 257.822 111.577 257.678 111.433C257.546 111.289 257.48 111.079 257.48 110.803V109.237L257.714 109.543C257.474 110.239 257.084 110.773 256.544 111.145C256.016 111.505 255.392 111.685 254.672 111.685ZM262.563 111.649C262.287 111.649 262.077 111.577 261.933 111.433C261.789 111.289 261.717 111.079 261.717 110.803V103.459C261.717 103.183 261.789 102.979 261.933 102.847C262.077 102.703 262.275 102.631 262.527 102.631C262.779 102.631 262.971 102.703 263.103 102.847C263.247 102.979 263.319 103.183 263.319 103.459V104.845H263.139C263.331 104.125 263.691 103.579 264.219 103.207C264.747 102.835 265.413 102.625 266.217 102.577C266.409 102.565 266.565 102.613 266.685 102.721C266.805 102.817 266.871 102.985 266.883 103.225C266.895 103.453 266.841 103.639 266.721 103.783C266.601 103.915 266.415 103.993 266.163 104.017L265.839 104.035C265.047 104.119 264.435 104.377 264.003 104.809C263.583 105.241 263.373 105.835 263.373 106.591V110.803C263.373 111.079 263.301 111.289 263.157 111.433C263.025 111.577 262.827 111.649 262.563 111.649ZM276.333 111.685C275.565 111.685 274.887 111.505 274.299 111.145C273.723 110.773 273.273 110.245 272.949 109.561C272.625 108.865 272.463 108.055 272.463 107.131C272.463 106.195 272.619 105.391 272.931 104.719C273.255 104.035 273.705 103.513 274.281 103.153C274.869 102.781 275.553 102.595 276.333 102.595C277.113 102.595 277.785 102.793 278.349 103.189C278.913 103.573 279.291 104.089 279.483 104.737H279.285V99.5354C279.285 99.2594 279.351 99.0554 279.483 98.9234C279.627 98.7794 279.831 98.7074 280.095 98.7074C280.359 98.7074 280.563 98.7794 280.707 98.9234C280.851 99.0554 280.923 99.2594 280.923 99.5354V110.803C280.923 111.079 280.851 111.289 280.707 111.433C280.563 111.577 280.359 111.649 280.095 111.649C279.843 111.649 279.645 111.577 279.501 111.433C279.357 111.289 279.285 111.079 279.285 110.803V109.165L279.483 109.489C279.303 110.161 278.925 110.695 278.349 111.091C277.785 111.487 277.113 111.685 276.333 111.685ZM276.711 110.389C277.239 110.389 277.695 110.263 278.079 110.011C278.475 109.759 278.775 109.393 278.979 108.913C279.195 108.433 279.303 107.839 279.303 107.131C279.303 106.075 279.069 105.271 278.601 104.719C278.133 104.167 277.503 103.891 276.711 103.891C276.195 103.891 275.739 104.017 275.343 104.269C274.959 104.509 274.659 104.869 274.443 105.349C274.227 105.829 274.119 106.423 274.119 107.131C274.119 108.187 274.353 108.997 274.821 109.561C275.301 110.113 275.931 110.389 276.711 110.389ZM286.339 111.685C285.739 111.685 285.193 111.565 284.701 111.325C284.221 111.085 283.843 110.761 283.567 110.353C283.303 109.945 283.171 109.489 283.171 108.985C283.171 108.337 283.333 107.827 283.657 107.455C283.981 107.083 284.527 106.819 285.295 106.663C286.063 106.495 287.095 106.411 288.391 106.411H289.237V107.455H288.427C287.503 107.455 286.771 107.497 286.231 107.581C285.703 107.665 285.331 107.815 285.115 108.031C284.899 108.235 284.791 108.523 284.791 108.895C284.791 109.363 284.953 109.747 285.277 110.047C285.613 110.347 286.069 110.497 286.645 110.497C287.101 110.497 287.503 110.389 287.851 110.173C288.199 109.945 288.475 109.645 288.679 109.273C288.883 108.889 288.985 108.451 288.985 107.959V105.889C288.985 105.181 288.841 104.671 288.553 104.359C288.265 104.035 287.779 103.873 287.095 103.873C286.699 103.873 286.291 103.927 285.871 104.035C285.451 104.143 285.013 104.311 284.557 104.539C284.377 104.623 284.221 104.653 284.089 104.629C283.957 104.593 283.849 104.521 283.765 104.413C283.693 104.293 283.651 104.167 283.639 104.035C283.639 103.891 283.669 103.753 283.729 103.621C283.801 103.489 283.921 103.393 284.089 103.333C284.617 103.069 285.139 102.883 285.655 102.775C286.183 102.655 286.675 102.595 287.131 102.595C287.911 102.595 288.553 102.721 289.057 102.973C289.561 103.213 289.939 103.591 290.191 104.107C290.443 104.611 290.569 105.259 290.569 106.051V110.803C290.569 111.079 290.503 111.289 290.371 111.433C290.239 111.577 290.047 111.649 289.795 111.649C289.555 111.649 289.363 111.577 289.219 111.433C289.087 111.289 289.021 111.079 289.021 110.803V109.525H289.183C289.087 109.969 288.907 110.353 288.643 110.677C288.379 111.001 288.049 111.253 287.653 111.433C287.269 111.601 286.831 111.685 286.339 111.685ZM296.783 111.685C296.075 111.685 295.481 111.559 295.001 111.307C294.533 111.055 294.179 110.689 293.939 110.209C293.711 109.729 293.597 109.141 293.597 108.445V104.017H292.445C292.229 104.017 292.061 103.963 291.941 103.855C291.821 103.735 291.761 103.579 291.761 103.387C291.761 103.183 291.821 103.027 291.941 102.919C292.061 102.811 292.229 102.757 292.445 102.757H293.597V100.795C293.597 100.519 293.669 100.315 293.813 100.183C293.957 100.039 294.161 99.9674 294.425 99.9674C294.689 99.9674 294.887 100.039 295.019 100.183C295.163 100.315 295.235 100.519 295.235 100.795V102.757H297.413C297.641 102.757 297.815 102.811 297.935 102.919C298.055 103.027 298.115 103.183 298.115 103.387C298.115 103.579 298.055 103.735 297.935 103.855C297.815 103.963 297.641 104.017 297.413 104.017H295.235V108.301C295.235 108.961 295.373 109.459 295.649 109.795C295.925 110.131 296.381 110.299 297.017 110.299C297.245 110.299 297.437 110.281 297.593 110.245C297.749 110.197 297.887 110.173 298.007 110.173C298.115 110.161 298.205 110.197 298.277 110.281C298.361 110.365 298.403 110.521 298.403 110.749C298.403 110.917 298.373 111.073 298.313 111.217C298.265 111.349 298.163 111.439 298.007 111.487C297.863 111.535 297.671 111.577 297.431 111.613C297.191 111.661 296.975 111.685 296.783 111.685ZM302.388 111.685C301.788 111.685 301.242 111.565 300.75 111.325C300.27 111.085 299.892 110.761 299.616 110.353C299.352 109.945 299.22 109.489 299.22 108.985C299.22 108.337 299.382 107.827 299.706 107.455C300.03 107.083 300.576 106.819 301.344 106.663C302.112 106.495 303.144 106.411 304.44 106.411H305.286V107.455H304.476C303.552 107.455 302.82 107.497 302.28 107.581C301.752 107.665 301.38 107.815 301.164 108.031C300.948 108.235 300.84 108.523 300.84 108.895C300.84 109.363 301.002 109.747 301.326 110.047C301.662 110.347 302.118 110.497 302.694 110.497C303.15 110.497 303.552 110.389 303.9 110.173C304.248 109.945 304.524 109.645 304.728 109.273C304.932 108.889 305.034 108.451 305.034 107.959V105.889C305.034 105.181 304.89 104.671 304.602 104.359C304.314 104.035 303.828 103.873 303.144 103.873C302.748 103.873 302.34 103.927 301.92 104.035C301.5 104.143 301.062 104.311 300.606 104.539C300.426 104.623 300.27 104.653 300.138 104.629C300.006 104.593 299.898 104.521 299.814 104.413C299.742 104.293 299.7 104.167 299.688 104.035C299.688 103.891 299.718 103.753 299.778 103.621C299.85 103.489 299.97 103.393 300.138 103.333C300.666 103.069 301.188 102.883 301.704 102.775C302.232 102.655 302.724 102.595 303.18 102.595C303.96 102.595 304.602 102.721 305.106 102.973C305.61 103.213 305.988 103.591 306.24 104.107C306.492 104.611 306.618 105.259 306.618 106.051V110.803C306.618 111.079 306.552 111.289 306.42 111.433C306.288 111.577 306.096 111.649 305.844 111.649C305.604 111.649 305.412 111.577 305.268 111.433C305.136 111.289 305.07 111.079 305.07 110.803V109.525H305.232C305.136 109.969 304.956 110.353 304.692 110.677C304.428 111.001 304.098 111.253 303.702 111.433C303.318 111.601 302.88 111.685 302.388 111.685ZM64.5483 140.649C64.2843 140.649 64.0803 140.577 63.9363 140.433C63.7923 140.289 63.7203 140.079 63.7203 139.803V133.017H62.6403C62.4243 133.017 62.2563 132.963 62.1363 132.855C62.0163 132.735 61.9563 132.579 61.9563 132.387C61.9563 132.183 62.0163 132.027 62.1363 131.919C62.2563 131.811 62.4243 131.757 62.6403 131.757H64.1703L63.7203 132.189V131.523C63.7203 130.359 64.0023 129.477 64.5663 128.877C65.1423 128.265 65.9823 127.911 67.0863 127.815L67.6443 127.779C67.8243 127.755 67.9683 127.785 68.0763 127.869C68.1843 127.941 68.2563 128.037 68.2923 128.157C68.3283 128.277 68.3283 128.403 68.2923 128.535C68.2683 128.655 68.2143 128.763 68.1303 128.859C68.0463 128.955 67.9383 129.009 67.8063 129.021L67.4103 129.039C66.6903 129.099 66.1683 129.315 65.8443 129.687C65.5203 130.047 65.3583 130.587 65.3583 131.307V132.027L65.1243 131.757H67.1943C67.4223 131.757 67.5963 131.811 67.7163 131.919C67.8363 132.027 67.8963 132.183 67.8963 132.387C67.8963 132.579 67.8363 132.735 67.7163 132.855C67.5963 132.963 67.4223 133.017 67.1943 133.017H65.3583V139.803C65.3583 140.367 65.0883 140.649 64.5483 140.649ZM70.1795 140.649C69.9035 140.649 69.6935 140.577 69.5495 140.433C69.4055 140.289 69.3335 140.079 69.3335 139.803V132.459C69.3335 132.183 69.4055 131.979 69.5495 131.847C69.6935 131.703 69.8915 131.631 70.1435 131.631C70.3955 131.631 70.5875 131.703 70.7195 131.847C70.8635 131.979 70.9355 132.183 70.9355 132.459V133.845H70.7555C70.9475 133.125 71.3075 132.579 71.8355 132.207C72.3635 131.835 73.0295 131.625 73.8335 131.577C74.0255 131.565 74.1815 131.613 74.3015 131.721C74.4215 131.817 74.4875 131.985 74.4995 132.225C74.5115 132.453 74.4575 132.639 74.3375 132.783C74.2175 132.915 74.0315 132.993 73.7795 133.017L73.4555 133.035C72.6635 133.119 72.0515 133.377 71.6195 133.809C71.1995 134.241 70.9895 134.835 70.9895 135.591V139.803C70.9895 140.079 70.9175 140.289 70.7735 140.433C70.6415 140.577 70.4435 140.649 70.1795 140.649ZM79.5107 140.685C78.6467 140.685 77.8967 140.499 77.2607 140.127C76.6247 139.755 76.1327 139.227 75.7847 138.543C75.4367 137.859 75.2627 137.055 75.2627 136.131C75.2627 135.435 75.3587 134.811 75.5507 134.259C75.7547 133.695 76.0427 133.215 76.4147 132.819C76.7867 132.423 77.2307 132.123 77.7467 131.919C78.2747 131.703 78.8627 131.595 79.5107 131.595C80.3747 131.595 81.1247 131.781 81.7607 132.153C82.3967 132.525 82.8887 133.053 83.2367 133.737C83.5847 134.409 83.7587 135.207 83.7587 136.131C83.7587 136.827 83.6567 137.457 83.4527 138.021C83.2607 138.585 82.9787 139.065 82.6067 139.461C82.2347 139.857 81.7847 140.163 81.2567 140.379C80.7407 140.583 80.1587 140.685 79.5107 140.685ZM79.5107 139.389C80.0387 139.389 80.4947 139.263 80.8787 139.011C81.2747 138.759 81.5747 138.393 81.7787 137.913C81.9947 137.433 82.1027 136.839 82.1027 136.131C82.1027 135.075 81.8687 134.271 81.4007 133.719C80.9327 133.167 80.3027 132.891 79.5107 132.891C78.9947 132.891 78.5387 133.017 78.1427 133.269C77.7587 133.509 77.4587 133.869 77.2427 134.349C77.0267 134.829 76.9187 135.423 76.9187 136.131C76.9187 137.187 77.1527 137.997 77.6207 138.561C78.1007 139.113 78.7307 139.389 79.5107 139.389ZM86.703 140.649C86.451 140.649 86.253 140.577 86.109 140.433C85.965 140.289 85.893 140.079 85.893 139.803V132.459C85.893 132.183 85.965 131.979 86.109 131.847C86.253 131.703 86.451 131.631 86.703 131.631C86.955 131.631 87.147 131.703 87.279 131.847C87.423 131.979 87.495 132.183 87.495 132.459V133.989L87.297 133.665C87.525 133.005 87.891 132.495 88.395 132.135C88.911 131.775 89.523 131.595 90.231 131.595C90.975 131.595 91.575 131.775 92.031 132.135C92.487 132.483 92.793 133.017 92.949 133.737H92.697C92.913 133.077 93.297 132.555 93.849 132.171C94.413 131.787 95.067 131.595 95.811 131.595C96.471 131.595 97.011 131.727 97.431 131.991C97.863 132.243 98.187 132.627 98.403 133.143C98.619 133.647 98.727 134.295 98.727 135.087V139.803C98.727 140.079 98.655 140.289 98.511 140.433C98.367 140.577 98.169 140.649 97.917 140.649C97.653 140.649 97.449 140.577 97.305 140.433C97.161 140.289 97.089 140.079 97.089 139.803V135.159C97.089 134.391 96.957 133.827 96.693 133.467C96.429 133.107 95.985 132.927 95.361 132.927C94.677 132.927 94.131 133.167 93.723 133.647C93.327 134.115 93.129 134.763 93.129 135.591V139.803C93.129 140.079 93.057 140.289 92.913 140.433C92.781 140.577 92.583 140.649 92.319 140.649C92.055 140.649 91.851 140.577 91.707 140.433C91.563 140.289 91.491 140.079 91.491 139.803V135.159C91.491 134.391 91.359 133.827 91.095 133.467C90.831 133.107 90.387 132.927 89.763 132.927C89.079 132.927 88.533 133.167 88.125 133.647C87.729 134.115 87.531 134.763 87.531 135.591V139.803C87.531 140.367 87.255 140.649 86.703 140.649ZM108.844 140.685C108.244 140.685 107.698 140.565 107.206 140.325C106.726 140.085 106.348 139.761 106.072 139.353C105.808 138.945 105.676 138.489 105.676 137.985C105.676 137.337 105.838 136.827 106.162 136.455C106.486 136.083 107.032 135.819 107.8 135.663C108.568 135.495 109.6 135.411 110.896 135.411H111.742V136.455H110.932C110.008 136.455 109.276 136.497 108.736 136.581C108.208 136.665 107.836 136.815 107.62 137.031C107.404 137.235 107.296 137.523 107.296 137.895C107.296 138.363 107.458 138.747 107.782 139.047C108.118 139.347 108.574 139.497 109.15 139.497C109.606 139.497 110.008 139.389 110.356 139.173C110.704 138.945 110.98 138.645 111.184 138.273C111.388 137.889 111.49 137.451 111.49 136.959V134.889C111.49 134.181 111.346 133.671 111.058 133.359C110.77 133.035 110.284 132.873 109.6 132.873C109.204 132.873 108.796 132.927 108.376 133.035C107.956 133.143 107.518 133.311 107.062 133.539C106.882 133.623 106.726 133.653 106.594 133.629C106.462 133.593 106.354 133.521 106.27 133.413C106.198 133.293 106.156 133.167 106.144 133.035C106.144 132.891 106.174 132.753 106.234 132.621C106.306 132.489 106.426 132.393 106.594 132.333C107.122 132.069 107.644 131.883 108.16 131.775C108.688 131.655 109.18 131.595 109.636 131.595C110.416 131.595 111.058 131.721 111.562 131.973C112.066 132.213 112.444 132.591 112.696 133.107C112.948 133.611 113.074 134.259 113.074 135.051V139.803C113.074 140.079 113.008 140.289 112.876 140.433C112.744 140.577 112.552 140.649 112.3 140.649C112.06 140.649 111.868 140.577 111.724 140.433C111.592 140.289 111.526 140.079 111.526 139.803V138.525H111.688C111.592 138.969 111.412 139.353 111.148 139.677C110.884 140.001 110.554 140.253 110.158 140.433C109.774 140.601 109.336 140.685 108.844 140.685ZM116.462 140.649C116.21 140.649 116.012 140.577 115.868 140.433C115.724 140.289 115.652 140.079 115.652 139.803V132.459C115.652 132.183 115.724 131.979 115.868 131.847C116.012 131.703 116.21 131.631 116.462 131.631C116.714 131.631 116.906 131.703 117.038 131.847C117.182 131.979 117.254 132.183 117.254 132.459V133.935L117.056 133.665C117.308 132.981 117.716 132.465 118.28 132.117C118.856 131.769 119.51 131.595 120.242 131.595C120.95 131.595 121.532 131.721 121.988 131.973C122.444 132.225 122.786 132.609 123.014 133.125C123.242 133.641 123.356 134.295 123.356 135.087V139.803C123.356 140.079 123.284 140.289 123.14 140.433C123.008 140.577 122.81 140.649 122.546 140.649C122.282 140.649 122.078 140.577 121.934 140.433C121.79 140.289 121.718 140.079 121.718 139.803V135.177C121.718 134.397 121.568 133.827 121.268 133.467C120.968 133.107 120.488 132.927 119.828 132.927C119.06 132.927 118.442 133.167 117.974 133.647C117.518 134.115 117.29 134.751 117.29 135.555V139.803C117.29 140.367 117.014 140.649 116.462 140.649ZM127.881 143.889C127.689 143.889 127.527 143.835 127.395 143.727C127.275 143.631 127.203 143.493 127.179 143.313C127.167 143.145 127.203 142.965 127.287 142.773L128.511 140.001V140.685L125.109 132.765C125.025 132.561 124.995 132.375 125.019 132.207C125.043 132.039 125.121 131.901 125.253 131.793C125.397 131.685 125.589 131.631 125.829 131.631C126.033 131.631 126.195 131.679 126.315 131.775C126.435 131.871 126.549 132.039 126.657 132.279L129.483 139.245H128.979L131.859 132.279C131.955 132.039 132.069 131.871 132.201 131.775C132.333 131.679 132.513 131.631 132.741 131.631C132.945 131.631 133.101 131.685 133.209 131.793C133.329 131.901 133.401 132.039 133.425 132.207C133.449 132.375 133.413 132.555 133.317 132.747L128.781 143.241C128.661 143.493 128.535 143.661 128.403 143.745C128.283 143.841 128.109 143.889 127.881 143.889ZM142.881 140.685C142.341 140.685 141.795 140.625 141.243 140.505C140.703 140.373 140.193 140.151 139.713 139.839C139.581 139.755 139.485 139.653 139.425 139.533C139.377 139.401 139.359 139.275 139.371 139.155C139.395 139.023 139.449 138.909 139.533 138.813C139.617 138.717 139.719 138.663 139.839 138.651C139.971 138.627 140.109 138.657 140.253 138.741C140.721 139.005 141.171 139.191 141.603 139.299C142.047 139.407 142.485 139.461 142.917 139.461C143.577 139.461 144.075 139.341 144.411 139.101C144.747 138.861 144.915 138.543 144.915 138.147C144.915 137.811 144.801 137.553 144.573 137.373C144.357 137.181 144.015 137.037 143.547 136.941L141.873 136.599C141.129 136.431 140.565 136.155 140.181 135.771C139.809 135.375 139.623 134.871 139.623 134.259C139.623 133.719 139.767 133.251 140.055 132.855C140.355 132.447 140.769 132.135 141.297 131.919C141.825 131.703 142.431 131.595 143.115 131.595C143.643 131.595 144.141 131.667 144.609 131.811C145.089 131.943 145.521 132.147 145.905 132.423C146.049 132.507 146.139 132.615 146.175 132.747C146.223 132.867 146.229 132.993 146.193 133.125C146.169 133.245 146.115 133.347 146.031 133.431C145.947 133.515 145.839 133.569 145.707 133.593C145.575 133.605 145.431 133.569 145.275 133.485C144.927 133.245 144.567 133.077 144.195 132.981C143.835 132.873 143.475 132.819 143.115 132.819C142.467 132.819 141.975 132.945 141.639 133.197C141.315 133.449 141.153 133.779 141.153 134.187C141.153 134.499 141.249 134.757 141.441 134.961C141.645 135.165 141.963 135.315 142.395 135.411L144.069 135.753C144.849 135.921 145.437 136.191 145.833 136.563C146.229 136.923 146.427 137.415 146.427 138.039C146.427 138.855 146.103 139.503 145.455 139.983C144.819 140.451 143.961 140.685 142.881 140.685ZM149.368 143.889C149.116 143.889 148.918 143.817 148.774 143.673C148.63 143.529 148.558 143.325 148.558 143.061V132.459C148.558 132.183 148.63 131.979 148.774 131.847C148.918 131.703 149.116 131.631 149.368 131.631C149.632 131.631 149.83 131.703 149.962 131.847C150.106 131.979 150.178 132.183 150.178 132.459V134.097L149.98 133.773C150.172 133.113 150.55 132.585 151.114 132.189C151.678 131.793 152.356 131.595 153.148 131.595C153.928 131.595 154.606 131.781 155.182 132.153C155.758 132.513 156.208 133.035 156.532 133.719C156.856 134.391 157.018 135.195 157.018 136.131C157.018 137.055 156.856 137.865 156.532 138.561C156.22 139.245 155.77 139.773 155.182 140.145C154.606 140.505 153.928 140.685 153.148 140.685C152.368 140.685 151.696 140.487 151.132 140.091C150.568 139.695 150.19 139.173 149.998 138.525H150.196V143.061C150.196 143.325 150.124 143.529 149.98 143.673C149.836 143.817 149.632 143.889 149.368 143.889ZM152.77 139.389C153.286 139.389 153.736 139.263 154.12 139.011C154.516 138.759 154.822 138.393 155.038 137.913C155.254 137.433 155.362 136.839 155.362 136.131C155.362 135.075 155.128 134.271 154.66 133.719C154.192 133.167 153.562 132.891 152.77 132.891C152.242 132.891 151.78 133.017 151.384 133.269C151 133.509 150.7 133.869 150.484 134.349C150.28 134.829 150.178 135.423 150.178 136.131C150.178 137.187 150.412 137.997 150.88 138.561C151.348 139.113 151.978 139.389 152.77 139.389ZM159.969 140.649C159.693 140.649 159.483 140.577 159.339 140.433C159.195 140.289 159.123 140.079 159.123 139.803V132.459C159.123 132.183 159.195 131.979 159.339 131.847C159.483 131.703 159.681 131.631 159.933 131.631C160.185 131.631 160.377 131.703 160.509 131.847C160.653 131.979 160.725 132.183 160.725 132.459V133.845H160.545C160.737 133.125 161.097 132.579 161.625 132.207C162.153 131.835 162.819 131.625 163.623 131.577C163.815 131.565 163.971 131.613 164.091 131.721C164.211 131.817 164.277 131.985 164.289 132.225C164.301 132.453 164.247 132.639 164.127 132.783C164.007 132.915 163.821 132.993 163.569 133.017L163.245 133.035C162.453 133.119 161.841 133.377 161.409 133.809C160.989 134.241 160.779 134.835 160.779 135.591V139.803C160.779 140.079 160.707 140.289 160.563 140.433C160.431 140.577 160.233 140.649 159.969 140.649ZM169.624 140.685C168.676 140.685 167.86 140.505 167.176 140.145C166.504 139.773 165.982 139.251 165.61 138.579C165.238 137.895 165.052 137.091 165.052 136.167C165.052 135.255 165.232 134.457 165.592 133.773C165.964 133.089 166.468 132.555 167.104 132.171C167.752 131.787 168.49 131.595 169.318 131.595C169.906 131.595 170.434 131.697 170.902 131.901C171.382 132.093 171.79 132.375 172.126 132.747C172.462 133.119 172.714 133.575 172.882 134.115C173.062 134.643 173.152 135.243 173.152 135.915C173.152 136.107 173.092 136.257 172.972 136.365C172.864 136.461 172.702 136.509 172.486 136.509H166.33V135.465H172.072L171.766 135.717C171.766 135.093 171.67 134.565 171.478 134.133C171.298 133.689 171.028 133.353 170.668 133.125C170.32 132.897 169.882 132.783 169.354 132.783C168.778 132.783 168.286 132.921 167.878 133.197C167.47 133.461 167.158 133.839 166.942 134.331C166.726 134.811 166.618 135.369 166.618 136.005V136.113C166.618 137.193 166.876 138.009 167.392 138.561C167.908 139.113 168.652 139.389 169.624 139.389C170.008 139.389 170.398 139.341 170.794 139.245C171.202 139.149 171.592 138.975 171.964 138.723C172.144 138.615 172.306 138.567 172.45 138.579C172.606 138.579 172.732 138.627 172.828 138.723C172.924 138.807 172.984 138.915 173.008 139.047C173.032 139.167 173.014 139.299 172.954 139.443C172.894 139.587 172.78 139.713 172.612 139.821C172.216 140.097 171.742 140.313 171.19 140.469C170.65 140.613 170.128 140.685 169.624 140.685ZM177.979 140.685C177.379 140.685 176.833 140.565 176.341 140.325C175.861 140.085 175.483 139.761 175.207 139.353C174.943 138.945 174.811 138.489 174.811 137.985C174.811 137.337 174.973 136.827 175.297 136.455C175.621 136.083 176.167 135.819 176.935 135.663C177.703 135.495 178.735 135.411 180.031 135.411H180.877V136.455H180.067C179.143 136.455 178.411 136.497 177.871 136.581C177.343 136.665 176.971 136.815 176.755 137.031C176.539 137.235 176.431 137.523 176.431 137.895C176.431 138.363 176.593 138.747 176.917 139.047C177.253 139.347 177.709 139.497 178.285 139.497C178.741 139.497 179.143 139.389 179.491 139.173C179.839 138.945 180.115 138.645 180.319 138.273C180.523 137.889 180.625 137.451 180.625 136.959V134.889C180.625 134.181 180.481 133.671 180.193 133.359C179.905 133.035 179.419 132.873 178.735 132.873C178.339 132.873 177.931 132.927 177.511 133.035C177.091 133.143 176.653 133.311 176.197 133.539C176.017 133.623 175.861 133.653 175.729 133.629C175.597 133.593 175.489 133.521 175.405 133.413C175.333 133.293 175.291 133.167 175.279 133.035C175.279 132.891 175.309 132.753 175.369 132.621C175.441 132.489 175.561 132.393 175.729 132.333C176.257 132.069 176.779 131.883 177.295 131.775C177.823 131.655 178.315 131.595 178.771 131.595C179.551 131.595 180.193 131.721 180.697 131.973C181.201 132.213 181.579 132.591 181.831 133.107C182.083 133.611 182.209 134.259 182.209 135.051V139.803C182.209 140.079 182.143 140.289 182.011 140.433C181.879 140.577 181.687 140.649 181.435 140.649C181.195 140.649 181.003 140.577 180.859 140.433C180.727 140.289 180.661 140.079 180.661 139.803V138.525H180.823C180.727 138.969 180.547 139.353 180.283 139.677C180.019 140.001 179.689 140.253 179.293 140.433C178.909 140.601 178.471 140.685 177.979 140.685ZM188.135 140.685C187.367 140.685 186.689 140.505 186.101 140.145C185.525 139.773 185.075 139.245 184.751 138.561C184.427 137.865 184.265 137.055 184.265 136.131C184.265 135.195 184.421 134.391 184.733 133.719C185.057 133.035 185.507 132.513 186.083 132.153C186.671 131.781 187.355 131.595 188.135 131.595C188.915 131.595 189.587 131.793 190.151 132.189C190.715 132.573 191.093 133.089 191.285 133.737H191.087V128.535C191.087 128.259 191.153 128.055 191.285 127.923C191.429 127.779 191.633 127.707 191.897 127.707C192.161 127.707 192.365 127.779 192.509 127.923C192.653 128.055 192.725 128.259 192.725 128.535V139.803C192.725 140.079 192.653 140.289 192.509 140.433C192.365 140.577 192.161 140.649 191.897 140.649C191.645 140.649 191.447 140.577 191.303 140.433C191.159 140.289 191.087 140.079 191.087 139.803V138.165L191.285 138.489C191.105 139.161 190.727 139.695 190.151 140.091C189.587 140.487 188.915 140.685 188.135 140.685ZM188.513 139.389C189.041 139.389 189.497 139.263 189.881 139.011C190.277 138.759 190.577 138.393 190.781 137.913C190.997 137.433 191.105 136.839 191.105 136.131C191.105 135.075 190.871 134.271 190.403 133.719C189.935 133.167 189.305 132.891 188.513 132.891C187.997 132.891 187.541 133.017 187.145 133.269C186.761 133.509 186.461 133.869 186.245 134.349C186.029 134.829 185.921 135.423 185.921 136.131C185.921 137.187 186.155 137.997 186.623 138.561C187.103 139.113 187.733 139.389 188.513 139.389ZM198.375 140.685C197.835 140.685 197.289 140.625 196.737 140.505C196.197 140.373 195.687 140.151 195.207 139.839C195.075 139.755 194.979 139.653 194.919 139.533C194.871 139.401 194.853 139.275 194.865 139.155C194.889 139.023 194.943 138.909 195.027 138.813C195.111 138.717 195.213 138.663 195.333 138.651C195.465 138.627 195.603 138.657 195.747 138.741C196.215 139.005 196.665 139.191 197.097 139.299C197.541 139.407 197.979 139.461 198.411 139.461C199.071 139.461 199.569 139.341 199.905 139.101C200.241 138.861 200.409 138.543 200.409 138.147C200.409 137.811 200.295 137.553 200.067 137.373C199.851 137.181 199.509 137.037 199.041 136.941L197.367 136.599C196.623 136.431 196.059 136.155 195.675 135.771C195.303 135.375 195.117 134.871 195.117 134.259C195.117 133.719 195.261 133.251 195.549 132.855C195.849 132.447 196.263 132.135 196.791 131.919C197.319 131.703 197.925 131.595 198.609 131.595C199.137 131.595 199.635 131.667 200.103 131.811C200.583 131.943 201.015 132.147 201.399 132.423C201.543 132.507 201.633 132.615 201.669 132.747C201.717 132.867 201.723 132.993 201.687 133.125C201.663 133.245 201.609 133.347 201.525 133.431C201.441 133.515 201.333 133.569 201.201 133.593C201.069 133.605 200.925 133.569 200.769 133.485C200.421 133.245 200.061 133.077 199.689 132.981C199.329 132.873 198.969 132.819 198.609 132.819C197.961 132.819 197.469 132.945 197.133 133.197C196.809 133.449 196.647 133.779 196.647 134.187C196.647 134.499 196.743 134.757 196.935 134.961C197.139 135.165 197.457 135.315 197.889 135.411L199.563 135.753C200.343 135.921 200.931 136.191 201.327 136.563C201.723 136.923 201.921 137.415 201.921 138.039C201.921 138.855 201.597 139.503 200.949 139.983C200.313 140.451 199.455 140.685 198.375 140.685ZM204.862 140.649C204.61 140.649 204.412 140.577 204.268 140.433C204.124 140.289 204.052 140.079 204.052 139.803V128.535C204.052 128.259 204.124 128.055 204.268 127.923C204.412 127.779 204.61 127.707 204.862 127.707C205.126 127.707 205.33 127.779 205.474 127.923C205.618 128.055 205.69 128.259 205.69 128.535V133.665H205.456C205.708 132.981 206.116 132.465 206.68 132.117C207.256 131.769 207.91 131.595 208.642 131.595C209.35 131.595 209.932 131.727 210.388 131.991C210.844 132.243 211.186 132.627 211.414 133.143C211.642 133.659 211.756 134.307 211.756 135.087V139.803C211.756 140.079 211.684 140.289 211.54 140.433C211.408 140.577 211.21 140.649 210.946 140.649C210.682 140.649 210.478 140.577 210.334 140.433C210.19 140.289 210.118 140.079 210.118 139.803V135.177C210.118 134.397 209.968 133.827 209.668 133.467C209.368 133.107 208.888 132.927 208.228 132.927C207.46 132.927 206.842 133.167 206.374 133.647C205.918 134.115 205.69 134.751 205.69 135.555V139.803C205.69 140.367 205.414 140.649 204.862 140.649ZM218.403 140.685C217.455 140.685 216.639 140.505 215.955 140.145C215.283 139.773 214.761 139.251 214.389 138.579C214.017 137.895 213.831 137.091 213.831 136.167C213.831 135.255 214.011 134.457 214.371 133.773C214.743 133.089 215.247 132.555 215.883 132.171C216.531 131.787 217.269 131.595 218.097 131.595C218.685 131.595 219.213 131.697 219.681 131.901C220.161 132.093 220.569 132.375 220.905 132.747C221.241 133.119 221.493 133.575 221.661 134.115C221.841 134.643 221.931 135.243 221.931 135.915C221.931 136.107 221.871 136.257 221.751 136.365C221.643 136.461 221.481 136.509 221.265 136.509H215.109V135.465H220.851L220.545 135.717C220.545 135.093 220.449 134.565 220.257 134.133C220.077 133.689 219.807 133.353 219.447 133.125C219.099 132.897 218.661 132.783 218.133 132.783C217.557 132.783 217.065 132.921 216.657 133.197C216.249 133.461 215.937 133.839 215.721 134.331C215.505 134.811 215.397 135.369 215.397 136.005V136.113C215.397 137.193 215.655 138.009 216.171 138.561C216.687 139.113 217.431 139.389 218.403 139.389C218.787 139.389 219.177 139.341 219.573 139.245C219.981 139.149 220.371 138.975 220.743 138.723C220.923 138.615 221.085 138.567 221.229 138.579C221.385 138.579 221.511 138.627 221.607 138.723C221.703 138.807 221.763 138.915 221.787 139.047C221.811 139.167 221.793 139.299 221.733 139.443C221.673 139.587 221.559 139.713 221.391 139.821C220.995 140.097 220.521 140.313 219.969 140.469C219.429 140.613 218.907 140.685 218.403 140.685ZM228.018 140.685C227.07 140.685 226.254 140.505 225.57 140.145C224.898 139.773 224.376 139.251 224.004 138.579C223.632 137.895 223.446 137.091 223.446 136.167C223.446 135.255 223.626 134.457 223.986 133.773C224.358 133.089 224.862 132.555 225.498 132.171C226.146 131.787 226.884 131.595 227.712 131.595C228.3 131.595 228.828 131.697 229.296 131.901C229.776 132.093 230.184 132.375 230.52 132.747C230.856 133.119 231.108 133.575 231.276 134.115C231.456 134.643 231.546 135.243 231.546 135.915C231.546 136.107 231.486 136.257 231.366 136.365C231.258 136.461 231.096 136.509 230.88 136.509H224.724V135.465H230.466L230.16 135.717C230.16 135.093 230.064 134.565 229.872 134.133C229.692 133.689 229.422 133.353 229.062 133.125C228.714 132.897 228.276 132.783 227.748 132.783C227.172 132.783 226.68 132.921 226.272 133.197C225.864 133.461 225.552 133.839 225.336 134.331C225.12 134.811 225.012 135.369 225.012 136.005V136.113C225.012 137.193 225.27 138.009 225.786 138.561C226.302 139.113 227.046 139.389 228.018 139.389C228.402 139.389 228.792 139.341 229.188 139.245C229.596 139.149 229.986 138.975 230.358 138.723C230.538 138.615 230.7 138.567 230.844 138.579C231 138.579 231.126 138.627 231.222 138.723C231.318 138.807 231.378 138.915 231.402 139.047C231.426 139.167 231.408 139.299 231.348 139.443C231.288 139.587 231.174 139.713 231.006 139.821C230.61 140.097 230.136 140.313 229.584 140.469C229.044 140.613 228.522 140.685 228.018 140.685ZM237.202 140.685C236.494 140.685 235.9 140.559 235.42 140.307C234.952 140.055 234.598 139.689 234.358 139.209C234.13 138.729 234.016 138.141 234.016 137.445V133.017H232.864C232.648 133.017 232.48 132.963 232.36 132.855C232.24 132.735 232.18 132.579 232.18 132.387C232.18 132.183 232.24 132.027 232.36 131.919C232.48 131.811 232.648 131.757 232.864 131.757H234.016V129.795C234.016 129.519 234.088 129.315 234.232 129.183C234.376 129.039 234.58 128.967 234.844 128.967C235.108 128.967 235.306 129.039 235.438 129.183C235.582 129.315 235.654 129.519 235.654 129.795V131.757H237.832C238.06 131.757 238.234 131.811 238.354 131.919C238.474 132.027 238.534 132.183 238.534 132.387C238.534 132.579 238.474 132.735 238.354 132.855C238.234 132.963 238.06 133.017 237.832 133.017H235.654V137.301C235.654 137.961 235.792 138.459 236.068 138.795C236.344 139.131 236.8 139.299 237.436 139.299C237.664 139.299 237.856 139.281 238.012 139.245C238.168 139.197 238.306 139.173 238.426 139.173C238.534 139.161 238.624 139.197 238.696 139.281C238.78 139.365 238.822 139.521 238.822 139.749C238.822 139.917 238.792 140.073 238.732 140.217C238.684 140.349 238.582 140.439 238.426 140.487C238.282 140.535 238.09 140.577 237.85 140.613C237.61 140.661 237.394 140.685 237.202 140.685ZM245.52 143.889C245.268 143.889 245.07 143.817 244.926 143.673C244.782 143.529 244.71 143.325 244.71 143.061V132.459C244.71 132.183 244.782 131.979 244.926 131.847C245.07 131.703 245.268 131.631 245.52 131.631C245.784 131.631 245.982 131.703 246.114 131.847C246.258 131.979 246.33 132.183 246.33 132.459V134.097L246.132 133.773C246.324 133.113 246.702 132.585 247.266 132.189C247.83 131.793 248.508 131.595 249.3 131.595C250.08 131.595 250.758 131.781 251.334 132.153C251.91 132.513 252.36 133.035 252.684 133.719C253.008 134.391 253.17 135.195 253.17 136.131C253.17 137.055 253.008 137.865 252.684 138.561C252.372 139.245 251.922 139.773 251.334 140.145C250.758 140.505 250.08 140.685 249.3 140.685C248.52 140.685 247.848 140.487 247.284 140.091C246.72 139.695 246.342 139.173 246.15 138.525H246.348V143.061C246.348 143.325 246.276 143.529 246.132 143.673C245.988 143.817 245.784 143.889 245.52 143.889ZM248.922 139.389C249.438 139.389 249.888 139.263 250.272 139.011C250.668 138.759 250.974 138.393 251.19 137.913C251.406 137.433 251.514 136.839 251.514 136.131C251.514 135.075 251.28 134.271 250.812 133.719C250.344 133.167 249.714 132.891 248.922 132.891C248.394 132.891 247.932 133.017 247.536 133.269C247.152 133.509 246.852 133.869 246.636 134.349C246.432 134.829 246.33 135.423 246.33 136.131C246.33 137.187 246.564 137.997 247.032 138.561C247.5 139.113 248.13 139.389 248.922 139.389ZM256.121 140.649C255.845 140.649 255.635 140.577 255.491 140.433C255.347 140.289 255.275 140.079 255.275 139.803V132.459C255.275 132.183 255.347 131.979 255.491 131.847C255.635 131.703 255.833 131.631 256.085 131.631C256.337 131.631 256.529 131.703 256.661 131.847C256.805 131.979 256.877 132.183 256.877 132.459V133.845H256.697C256.889 133.125 257.249 132.579 257.777 132.207C258.305 131.835 258.971 131.625 259.775 131.577C259.967 131.565 260.123 131.613 260.243 131.721C260.363 131.817 260.429 131.985 260.441 132.225C260.453 132.453 260.399 132.639 260.279 132.783C260.159 132.915 259.973 132.993 259.721 133.017L259.397 133.035C258.605 133.119 257.993 133.377 257.561 133.809C257.141 134.241 256.931 134.835 256.931 135.591V139.803C256.931 140.079 256.859 140.289 256.715 140.433C256.583 140.577 256.385 140.649 256.121 140.649ZM265.452 140.685C264.588 140.685 263.838 140.499 263.202 140.127C262.566 139.755 262.074 139.227 261.726 138.543C261.378 137.859 261.204 137.055 261.204 136.131C261.204 135.435 261.3 134.811 261.492 134.259C261.696 133.695 261.984 133.215 262.356 132.819C262.728 132.423 263.172 132.123 263.688 131.919C264.216 131.703 264.804 131.595 265.452 131.595C266.316 131.595 267.066 131.781 267.702 132.153C268.338 132.525 268.83 133.053 269.178 133.737C269.526 134.409 269.7 135.207 269.7 136.131C269.7 136.827 269.598 137.457 269.394 138.021C269.202 138.585 268.92 139.065 268.548 139.461C268.176 139.857 267.726 140.163 267.198 140.379C266.682 140.583 266.1 140.685 265.452 140.685ZM265.452 139.389C265.98 139.389 266.436 139.263 266.82 139.011C267.216 138.759 267.516 138.393 267.72 137.913C267.936 137.433 268.044 136.839 268.044 136.131C268.044 135.075 267.81 134.271 267.342 133.719C266.874 133.167 266.244 132.891 265.452 132.891C264.936 132.891 264.48 133.017 264.084 133.269C263.7 133.509 263.4 133.869 263.184 134.349C262.968 134.829 262.86 135.423 262.86 136.131C262.86 137.187 263.094 137.997 263.562 138.561C264.042 139.113 264.672 139.389 265.452 139.389ZM275.74 143.925C275.092 143.925 274.462 143.853 273.85 143.709C273.25 143.565 272.704 143.343 272.212 143.043C272.056 142.947 271.948 142.833 271.888 142.701C271.84 142.581 271.828 142.455 271.852 142.323C271.888 142.191 271.948 142.071 272.032 141.963C272.128 141.867 272.236 141.801 272.356 141.765C272.488 141.741 272.62 141.771 272.752 141.855C273.28 142.155 273.784 142.359 274.264 142.467C274.744 142.575 275.2 142.629 275.632 142.629C276.484 142.629 277.12 142.407 277.54 141.963C277.972 141.531 278.188 140.895 278.188 140.055V138.111H278.35C278.182 138.783 277.804 139.317 277.216 139.713C276.64 140.109 275.968 140.307 275.2 140.307C274.408 140.307 273.718 140.127 273.13 139.767C272.542 139.395 272.086 138.885 271.762 138.237C271.438 137.577 271.276 136.815 271.276 135.951C271.276 135.291 271.366 134.697 271.546 134.169C271.738 133.629 272.002 133.173 272.338 132.801C272.686 132.417 273.1 132.123 273.58 131.919C274.06 131.703 274.6 131.595 275.2 131.595C275.98 131.595 276.658 131.793 277.234 132.189C277.81 132.585 278.182 133.119 278.35 133.791L278.152 134.043V132.459C278.152 132.183 278.224 131.979 278.368 131.847C278.512 131.703 278.716 131.631 278.98 131.631C279.232 131.631 279.43 131.703 279.574 131.847C279.718 131.979 279.79 132.183 279.79 132.459V139.839C279.79 141.195 279.442 142.215 278.746 142.899C278.062 143.583 277.06 143.925 275.74 143.925ZM275.56 139.011C276.1 139.011 276.562 138.891 276.946 138.651C277.342 138.399 277.642 138.045 277.846 137.589C278.062 137.121 278.17 136.575 278.17 135.951C278.17 135.003 277.936 134.259 277.468 133.719C277 133.167 276.364 132.891 275.56 132.891C275.02 132.891 274.552 133.017 274.156 133.269C273.772 133.509 273.472 133.857 273.256 134.313C273.04 134.769 272.932 135.315 272.932 135.951C272.932 136.887 273.166 137.631 273.634 138.183C274.114 138.735 274.756 139.011 275.56 139.011ZM283.262 140.649C282.986 140.649 282.776 140.577 282.632 140.433C282.488 140.289 282.416 140.079 282.416 139.803V132.459C282.416 132.183 282.488 131.979 282.632 131.847C282.776 131.703 282.974 131.631 283.226 131.631C283.478 131.631 283.67 131.703 283.802 131.847C283.946 131.979 284.018 132.183 284.018 132.459V133.845H283.838C284.03 133.125 284.39 132.579 284.918 132.207C285.446 131.835 286.112 131.625 286.916 131.577C287.108 131.565 287.264 131.613 287.384 131.721C287.504 131.817 287.57 131.985 287.582 132.225C287.594 132.453 287.54 132.639 287.42 132.783C287.3 132.915 287.114 132.993 286.862 133.017L286.538 133.035C285.746 133.119 285.134 133.377 284.702 133.809C284.282 134.241 284.072 134.835 284.072 135.591V139.803C284.072 140.079 284 140.289 283.856 140.433C283.724 140.577 283.526 140.649 283.262 140.649ZM291.692 140.685C291.092 140.685 290.546 140.565 290.054 140.325C289.574 140.085 289.196 139.761 288.92 139.353C288.656 138.945 288.524 138.489 288.524 137.985C288.524 137.337 288.686 136.827 289.01 136.455C289.334 136.083 289.88 135.819 290.648 135.663C291.416 135.495 292.448 135.411 293.744 135.411H294.59V136.455H293.78C292.856 136.455 292.124 136.497 291.584 136.581C291.056 136.665 290.684 136.815 290.468 137.031C290.252 137.235 290.144 137.523 290.144 137.895C290.144 138.363 290.306 138.747 290.63 139.047C290.966 139.347 291.422 139.497 291.998 139.497C292.454 139.497 292.856 139.389 293.204 139.173C293.552 138.945 293.828 138.645 294.032 138.273C294.236 137.889 294.338 137.451 294.338 136.959V134.889C294.338 134.181 294.194 133.671 293.906 133.359C293.618 133.035 293.132 132.873 292.448 132.873C292.052 132.873 291.644 132.927 291.224 133.035C290.804 133.143 290.366 133.311 289.91 133.539C289.73 133.623 289.574 133.653 289.442 133.629C289.31 133.593 289.202 133.521 289.118 133.413C289.046 133.293 289.004 133.167 288.992 133.035C288.992 132.891 289.022 132.753 289.082 132.621C289.154 132.489 289.274 132.393 289.442 132.333C289.97 132.069 290.492 131.883 291.008 131.775C291.536 131.655 292.028 131.595 292.484 131.595C293.264 131.595 293.906 131.721 294.41 131.973C294.914 132.213 295.292 132.591 295.544 133.107C295.796 133.611 295.922 134.259 295.922 135.051V139.803C295.922 140.079 295.856 140.289 295.724 140.433C295.592 140.577 295.4 140.649 295.148 140.649C294.908 140.649 294.716 140.577 294.572 140.433C294.44 140.289 294.374 140.079 294.374 139.803V138.525H294.536C294.44 138.969 294.26 139.353 293.996 139.677C293.732 140.001 293.402 140.253 293.006 140.433C292.622 140.601 292.184 140.685 291.692 140.685ZM299.346 140.649C299.094 140.649 298.896 140.577 298.752 140.433C298.608 140.289 298.536 140.079 298.536 139.803V132.459C298.536 132.183 298.608 131.979 298.752 131.847C298.896 131.703 299.094 131.631 299.346 131.631C299.598 131.631 299.79 131.703 299.922 131.847C300.066 131.979 300.138 132.183 300.138 132.459V133.989L299.94 133.665C300.168 133.005 300.534 132.495 301.038 132.135C301.554 131.775 302.166 131.595 302.874 131.595C303.618 131.595 304.218 131.775 304.674 132.135C305.13 132.483 305.436 133.017 305.592 133.737H305.34C305.556 133.077 305.94 132.555 306.492 132.171C307.056 131.787 307.71 131.595 308.454 131.595C309.114 131.595 309.654 131.727 310.074 131.991C310.506 132.243 310.83 132.627 311.046 133.143C311.262 133.647 311.37 134.295 311.37 135.087V139.803C311.37 140.079 311.298 140.289 311.154 140.433C311.01 140.577 310.812 140.649 310.56 140.649C310.296 140.649 310.092 140.577 309.948 140.433C309.804 140.289 309.732 140.079 309.732 139.803V135.159C309.732 134.391 309.6 133.827 309.336 133.467C309.072 133.107 308.628 132.927 308.004 132.927C307.32 132.927 306.774 133.167 306.366 133.647C305.97 134.115 305.772 134.763 305.772 135.591V139.803C305.772 140.079 305.7 140.289 305.556 140.433C305.424 140.577 305.226 140.649 304.962 140.649C304.698 140.649 304.494 140.577 304.35 140.433C304.206 140.289 304.134 140.079 304.134 139.803V135.159C304.134 134.391 304.002 133.827 303.738 133.467C303.474 133.107 303.03 132.927 302.406 132.927C301.722 132.927 301.176 133.167 300.768 133.647C300.372 134.115 300.174 134.763 300.174 135.591V139.803C300.174 140.367 299.898 140.649 299.346 140.649Z" fill="black"/>
</g>
</svg>
