<svg width="75" height="75" viewBox="0 0 75 75" fill="none" xmlns="http://www.w3.org/2000/svg">
<circle cx="37.0078" cy="37.0078" r="37.0078" fill="white"/>
<path d="M50.3082 24.6973H23.7066C22.6614 24.6973 21.659 25.1125 20.9199 25.8516C20.1808 26.5906 19.7656 27.593 19.7656 28.6382V45.3874C19.7659 45.9042 19.8681 46.4159 20.0664 46.8931C20.2648 47.3703 20.5553 47.8038 20.9214 48.1685C21.2875 48.5333 21.7219 48.8223 22.1998 49.0189C22.6778 49.2156 23.1898 49.316 23.7066 49.3144H50.3082C50.825 49.316 51.337 49.2156 51.815 49.0189C52.2929 48.8223 52.7274 48.5333 53.0934 48.1685C53.4595 47.8038 53.75 47.3703 53.9484 46.8931C54.1467 46.4159 54.2489 45.9042 54.2492 45.3874V28.6382C54.2492 27.593 53.834 26.5906 53.0949 25.8516C52.3558 25.1125 51.3534 24.6973 50.3082 24.6973ZM35.9912 33.5078H32.4285V42.7098H29.4862V33.5077H25.9234V31.301H35.9912V33.5078ZM48.0914 33.5087H42.843V35.631H47.7083V37.8376H42.843V42.7107H39.9161V31.302H48.0914V33.5087Z" fill="black"/>
</svg>
