<svg width="75" height="75" viewBox="0 0 75 75" fill="none" xmlns="http://www.w3.org/2000/svg">
<ellipse cx="37.0078" cy="37.1477" rx="37.0078" ry="37.1477" fill="white"/>
<g clip-path="url(#clip0_585_2173)">
<path d="M50.6232 53.6577H23.3933C22.9042 53.6577 22.5078 53.2612 22.5078 52.7722V21.5315C22.5077 21.0425 22.9042 20.646 23.3933 20.646H50.6232C51.1122 20.646 51.5087 21.0425 51.5087 21.5315V37.8013C51.5087 38.2904 51.1122 38.6868 50.6232 38.6868C50.1342 38.6868 49.7377 38.2903 49.7377 37.8013V22.4171H24.2788V51.8866H49.7376V43.1735C49.7376 42.6843 50.1342 42.288 50.6232 42.288C51.1121 42.288 51.5087 42.6844 51.5087 43.1735V52.7721C51.5087 53.2613 51.1122 53.6577 50.6232 53.6577Z" fill="#507C5C"/>
<path d="M46.7453 25.8706H34.3477V29.3833H46.7453V25.8706Z" fill="#CFF09E"/>
<path d="M46.748 30.2676H34.3504C33.8612 30.2676 33.4648 29.8711 33.4648 29.3821V25.8694C33.4648 25.3803 33.8613 24.9839 34.3504 24.9839H46.748C47.237 24.9839 47.6335 25.3803 47.6335 25.8694V29.3821C47.6335 29.8711 47.237 30.2676 46.748 30.2676ZM35.2359 28.4965H45.8624V26.755H35.2359V28.4965Z" fill="#507C5C"/>
<path d="M46.7453 35.3955H34.3477V38.9082H46.7453V35.3955Z" fill="#CFF09E"/>
<path d="M46.748 39.7911H34.3504C33.8612 39.7911 33.4648 39.3946 33.4648 38.9056V35.3928C33.4648 34.9037 33.8613 34.5073 34.3504 34.5073H46.748C47.237 34.5073 47.6335 34.9038 47.6335 35.3928V38.9056C47.6335 39.3947 47.237 39.7911 46.748 39.7911ZM35.2359 38.02H45.8624V36.2784H35.2359V38.02Z" fill="#507C5C"/>
<path d="M46.748 49.3213H34.3504C33.8612 49.3213 33.4648 48.9248 33.4648 48.4358C33.4648 47.9466 33.8613 47.5502 34.3504 47.5502H45.8624V45.8086H34.3504C33.8612 45.8086 33.4648 45.4122 33.4648 44.9231C33.4648 44.4341 33.8613 44.0376 34.3504 44.0376H46.748C47.237 44.0376 47.6335 44.4341 47.6335 44.9231V48.4358C47.6335 48.9248 47.237 49.3213 46.748 49.3213Z" fill="#507C5C"/>
<path d="M28.597 26.4817C28.6607 26.4817 28.7544 26.469 28.8524 26.4144V30.1739C28.8524 30.5046 29.1823 30.7355 29.6545 30.7355C30.1266 30.7355 30.4564 30.5046 30.4564 30.1739V25.0789C30.4564 24.7271 30.0776 24.5093 29.7265 24.5093C29.5982 24.5093 29.4885 24.5372 29.4024 24.591L28.3457 25.2315C28.1434 25.3529 28.0273 25.563 28.0273 25.808C28.0274 26.1319 28.2452 26.4817 28.597 26.4817Z" fill="#507C5C"/>
<path d="M27.8976 40.2555H30.7494C31.0496 40.2555 31.3031 39.9214 31.3031 39.5257C31.3031 39.1387 31.0496 38.8119 30.7494 38.8119H28.8598C28.9609 38.6326 29.2835 38.4117 29.5972 38.197C30.3171 37.7042 31.3031 37.0293 31.3031 35.8808C31.3031 34.6887 30.2501 34.0454 29.2595 34.0454C28.2959 34.0454 27.2719 34.6466 27.2719 35.7606C27.2719 36.4433 27.6731 36.5867 28.0098 36.5867C28.5514 36.5867 28.8438 36.2601 28.8438 35.9529C28.8438 35.848 28.8438 35.5291 29.2675 35.5291C29.668 35.5291 29.6992 35.8289 29.6992 35.9208C29.6992 36.3128 29.1455 36.7193 28.6099 37.1124C27.9049 37.6299 27.1758 38.1652 27.1758 38.917V39.694C27.1756 40.0555 27.6025 40.2555 27.8976 40.2555Z" fill="#507C5C"/>
<path d="M30.7384 46.4605C31.0193 46.1849 31.1849 45.7227 31.1849 45.1764C31.1849 44.4342 30.8442 43.5493 29.2212 43.5493C27.8372 43.5493 27.2177 44.3584 27.2177 45.1604C27.2177 45.6828 27.4107 45.8421 28.0436 45.8421C28.5492 45.8421 28.8056 45.6289 28.8056 45.2085C28.8056 45.0895 28.8056 44.977 29.2212 44.977C29.5321 44.977 29.6369 45.0778 29.6369 45.3766C29.6369 45.8885 29.4394 45.8885 29.1892 45.8885C28.8575 45.8885 28.6516 46.1405 28.6516 46.5463C28.6516 46.952 28.8576 47.2041 29.1892 47.2041C29.6428 47.2041 29.7812 47.3125 29.7812 47.6679V47.8201C29.7812 48.2471 29.6608 48.364 29.2213 48.364C28.6854 48.364 28.6854 48.1625 28.6854 48.0764C28.6854 47.5837 28.3585 47.4827 27.8676 47.4827C27.4677 47.4827 27.0977 47.5595 27.0977 48.1164C27.0977 48.9309 27.7497 49.8076 29.1813 49.8076C30.5819 49.8076 31.3852 49.0832 31.3852 47.82V47.6678C31.3851 47.127 31.1629 46.715 30.7384 46.4605Z" fill="#507C5C"/>
</g>
<defs>
<clipPath id="clip0_585_2173">
<rect width="33.0117" height="33.0117" fill="white" transform="translate(20.5039 20.646)"/>
</clipPath>
</defs>
</svg>
