<svg width="75" height="75" viewBox="0 0 75 75" fill="none" xmlns="http://www.w3.org/2000/svg">
<circle cx="37.0078" cy="37.0078" r="37.0078" fill="white"/>
<path d="M56.7526 40.1L53.8972 36.8459L50.1911 38.533L43.858 47.0191L44.4282 52.067L46.893 53.1977C51.3486 50.303 55.0377 45.7183 56.7526 40.1Z" fill="#FF4B00"/>
<path d="M46.9574 52.5765L43.8171 46.2222L33.8966 48.1334L30.4521 51.5317L31.6003 55.6123C36.8451 56.8573 42.3476 55.5537 46.9574 52.5765Z" fill="#FF9F00"/>
<path d="M33.3716 47.6277L25.9315 41.6243L21.1895 40.7552L19.6142 45.7002C21.8819 50.2837 25.87 53.8226 31.0875 55.0597L33.3716 47.6277Z" fill="#66BB00"/>
<path d="M25.0096 41.6771L24.3656 31.5247L21.5146 28.2716L17.8041 29.9576C16.0892 35.5759 16.6683 41.18 18.8714 45.665L25.0096 41.6771Z" fill="#00CC71"/>
<path d="M30.1491 23.4204L31.6641 18.6861L27.0901 17.2146C22.5997 20.1222 18.882 24.7272 17.1539 30.3703L23.7668 31.944L30.1491 23.4204Z" fill="#0095FF"/>
<path d="M40.1181 22.2724L43.4679 19.1823L42.4143 14.7935C37.1696 13.5485 31.667 14.852 27.0573 17.8292L30.1975 24.1835L40.1181 22.2724Z" fill="#6B77E8"/>
<path d="M52.8356 27.6877L54.4028 24.7123C52.1351 20.1287 48.147 16.5898 42.9296 15.3527L40.6455 22.7847L48.0855 28.7881L52.8356 27.6877Z" fill="#B760EA"/>
<path d="M49.5657 38.9511L56.1768 40.5246C57.9043 34.8826 57.3207 29.2548 55.1008 24.7509L48.9165 28.7559C50.3528 31.6701 50.6836 35.3004 49.5657 38.9511Z" fill="#FF193D"/>
<path d="M49.689 38.3204L47.1589 35.1358L43.1552 36.7649L40.2566 40.6375L40.9366 45.9202L43.3124 46.8403C46.2152 44.9596 48.5717 41.9701 49.689 38.3204Z" fill="#FF7816"/>
<path d="M43.3517 46.4721L40.2268 40.1542L35.7393 41.0183L32.467 43.8912L33.4791 48.373C36.8563 49.1738 40.3834 48.3877 43.3517 46.4721Z" fill="#FDBF00"/>
<path d="M35.3587 40.7116L32.0051 38.0046L29.0973 37.9328L25.74 42.0484C27.1951 44.9906 29.7702 47.2098 33.1182 48.0037L35.3587 40.7116Z" fill="#77DD00"/>
<path d="M31.4809 38.0472L31.1861 33.4144L28.5199 30.1975L24.6523 31.859C23.535 35.5086 23.8653 39.1378 25.3005 42.0512L31.4809 38.0472Z" fill="#00DD7B"/>
<path d="M33.7397 29.8231L35.0406 24.5958L30.6525 23.5768C27.72 25.4707 25.3394 28.4814 24.2108 32.1568L30.8116 33.723L33.7397 29.8231Z" fill="#3AAAFF"/>
<path d="M38.2743 29.3934L41.5531 26.4997L40.5346 22.0388C37.1574 21.238 33.6303 22.0241 30.6619 23.9397L33.7868 30.2576L38.2743 29.3934Z" fill="#7984EB"/>
<path d="M46.7461 33.2482L48.276 28.3634C46.8209 25.4213 44.2458 23.202 40.8978 22.4081L38.6573 29.7002L42.0109 32.4072L46.7461 33.2482Z" fill="#CB75F6"/>
<path d="M48.6778 28.366L42.4336 32.3986L42.7316 37.0643L49.3331 38.6307C50.4618 34.955 50.1279 31.3 48.6778 28.366Z" fill="#FF4949"/>
<path d="M39.7888 40.4815C41.1161 39.6235 42.1936 38.2595 42.7043 36.5945L41.2886 33.6664L37.227 35.2933L37.7669 40.3033L39.7888 40.4815Z" fill="#FF9F00"/>
<path d="M35.3347 41.194C36.8602 41.5556 38.4536 41.2006 39.7945 40.3355L37.2062 35.1046L33.7997 38.4618L35.3347 41.194Z" fill="#FFD400"/>
<path d="M31.8608 38.3421C32.5129 39.6659 33.6669 40.6644 35.1671 41.0216L37.0078 35.0073L32.2575 36.1564L31.8608 38.3421Z" fill="#89F900"/>
<path d="M36.8905 35.042L34.5462 31.8902L31.4031 33.7392C30.8915 35.4063 31.043 37.0643 31.7006 38.3953L36.8905 35.042Z" fill="#00EE84"/>
<path d="M36.7747 35.2032L36.7911 31.2498L34.1634 29.9223C32.8104 30.7956 31.7121 32.1839 31.1914 33.8787L36.7747 35.2032Z" fill="#73BCFF"/>
<path d="M38.6328 29.2081C37.1199 28.8489 35.5396 29.2015 34.2097 30.0608L36.7767 35.2563L38.9648 31.9636L38.6328 29.2081Z" fill="#979FEF"/>
<path d="M42.1377 32.0618C41.4876 30.7404 40.3371 29.7436 38.8416 29.387L37.0064 35.3906L40.6285 34.9661L42.1377 32.0618Z" fill="#DA90F8"/>
<path d="M42.5911 36.7608C43.1117 35.0661 42.9576 33.3806 42.2886 32.0276L37.0078 35.4363L42.5911 36.7608Z" fill="#FF6C6C"/>
</svg>
