<svg width="32" height="35" viewBox="0 0 32 35" fill="none" xmlns="http://www.w3.org/2000/svg">
<path d="M29.398 24.2659C29.4901 24.367 29.563 24.487 29.6128 24.6192C29.6626 24.7513 29.6883 24.893 29.6883 25.036C29.6883 25.1791 29.6626 25.3207 29.6128 25.4529C29.563 25.585 29.4901 25.7051 29.398 25.8062L26.4293 29.0718C26.2909 29.2242 26.1145 29.328 25.9224 29.3701C25.7304 29.4121 25.5313 29.3906 25.3504 29.3081C25.1694 29.2257 25.0148 29.086 24.9061 28.9068C24.7974 28.7277 24.7394 28.5171 24.7396 28.3016V26.1246C23.342 26.103 21.9686 25.7206 20.73 25.0083C19.4913 24.2959 18.4221 23.2736 17.6084 22.0235L12.4477 14.0771C11.8062 13.0907 10.9603 12.2867 9.98005 11.7315C8.99977 11.1764 7.91336 10.8862 6.81081 10.885H3.95833C3.69588 10.885 3.44418 10.7703 3.25859 10.5661C3.07301 10.362 2.96875 10.0851 2.96875 9.79643C2.96875 9.50773 3.07301 9.23086 3.25859 9.02672C3.44418 8.82257 3.69588 8.70789 3.95833 8.70789H6.81081C8.22825 8.70918 9.62501 9.08199 10.8854 9.79542C12.1457 10.5088 13.2334 11.5424 14.0583 12.8103L19.2189 20.7567C19.8489 21.7256 20.6763 22.5189 21.6349 23.073C22.5936 23.627 23.6568 23.9265 24.7396 23.9475V21.7704C24.7394 21.555 24.7974 21.3443 24.9061 21.1652C25.0148 20.986 25.1694 20.8464 25.3504 20.7639C25.5313 20.6814 25.7304 20.6599 25.9224 20.702C26.1145 20.744 26.2909 20.8478 26.4293 21.0002L29.398 24.2659ZM17.6888 14.5588C17.7946 14.6419 17.9141 14.7013 18.0408 14.7335C18.1674 14.7658 18.2985 14.7703 18.4267 14.7468C18.5549 14.7233 18.6776 14.6722 18.7879 14.5965C18.8981 14.5209 18.9937 14.422 19.0693 14.3057L19.2177 14.0785C19.8475 13.1089 20.675 12.315 21.6339 11.7604C22.5928 11.2058 23.6564 10.906 24.7396 10.885V13.0621C24.7394 13.2775 24.7974 13.4881 24.9061 13.6673C25.0148 13.8464 25.1694 13.9861 25.3504 14.0685C25.5313 14.151 25.7304 14.1726 25.9224 14.1305C26.1145 14.0884 26.2909 13.9846 26.4293 13.8322L29.398 10.5666C29.4901 10.4655 29.563 10.3454 29.6128 10.2133C29.6626 10.0811 29.6883 9.93948 29.6883 9.79643C29.6883 9.65338 29.6626 9.51173 29.6128 9.37958C29.563 9.24744 29.4901 9.12738 29.398 9.02629L26.4293 5.76066C26.2909 5.60825 26.1145 5.50444 25.9224 5.46237C25.7304 5.4203 25.5313 5.44186 25.3504 5.52431C25.1694 5.60677 25.0148 5.74643 24.9061 5.9256C24.7974 6.10476 24.7394 6.31539 24.7396 6.53081V8.70789C23.342 8.72948 21.9686 9.11184 20.73 9.82417C19.4913 10.5365 18.4221 11.5589 17.6084 12.809L17.46 13.0362C17.3838 13.1526 17.3293 13.2844 17.2995 13.424C17.2698 13.5636 17.2654 13.7083 17.2867 13.8498C17.308 13.9913 17.3544 14.1268 17.4234 14.2484C17.4924 14.3701 17.5826 14.4756 17.6888 14.5588ZM13.9779 20.2736C13.8721 20.1906 13.7525 20.1312 13.6259 20.0989C13.4993 20.0667 13.3682 20.0622 13.24 20.0857C13.1118 20.1092 12.9891 20.1602 12.8788 20.2359C12.7686 20.3116 12.6729 20.4104 12.5974 20.5267L12.449 20.754C11.8075 21.7408 10.9614 22.5452 9.98092 23.1006C9.0004 23.656 7.91367 23.9463 6.81081 23.9475H3.95833C3.69588 23.9475 3.44418 24.0622 3.25859 24.2663C3.07301 24.4704 2.96875 24.7473 2.96875 25.036C2.96875 25.3247 3.07301 25.6016 3.25859 25.8057C3.44418 26.0099 3.69588 26.1246 3.95833 26.1246H6.81081C8.22825 26.1233 9.62501 25.7505 10.8854 25.037C12.1457 24.3236 13.2334 23.2901 14.0583 22.0221L14.2067 21.7949C14.2827 21.6785 14.3371 21.5469 14.3667 21.4074C14.3963 21.2679 14.4006 21.1233 14.3794 20.982C14.3581 20.8407 14.3117 20.7054 14.2428 20.5838C14.1739 20.4623 14.0839 20.3568 13.9779 20.2736Z" fill="black"/>
</svg>
