<svg width="375" height="234" viewBox="0 0 375 234" fill="none" xmlns="http://www.w3.org/2000/svg">
<rect width="374.664" height="233.717" rx="15" fill="#F5F5F5"/>
<mask id="mask0_548_2073" style="mask-type:alpha" maskUnits="userSpaceOnUse" x="0" y="0" width="375" height="234">
<rect width="374.664" height="233.717" rx="15" fill="#F5F5F5"/>
</mask>
<g mask="url(#mask0_548_2073)">
<path d="M86.1345 58.2006C85.6692 58.2006 85.2039 58.1636 84.7386 58.0896C84.2733 58.0261 83.8345 57.9257 83.4221 57.7882C83.0096 57.6401 82.6395 57.4604 82.3117 57.2489C82.1214 57.122 81.9892 56.9686 81.9152 56.7889C81.8411 56.6091 81.8147 56.4346 81.8358 56.2654C81.8676 56.0857 81.9363 55.9323 82.0421 55.8054C82.1584 55.6679 82.3011 55.5834 82.4703 55.5516C82.6395 55.5199 82.8246 55.5675 83.0255 55.6944C83.4908 55.9693 83.9825 56.1703 84.5007 56.2971C85.0189 56.424 85.5635 56.4875 86.1345 56.4875C86.9699 56.4875 87.578 56.35 87.9587 56.0751C88.3393 55.7896 88.5297 55.4247 88.5297 54.9806C88.5297 54.6105 88.3922 54.3197 88.1173 54.1082C87.8529 53.8967 87.3929 53.7222 86.7373 53.5847L84.9924 53.2199C83.9878 53.0084 83.237 52.6541 82.74 52.1571C82.2535 51.6495 82.0103 50.9833 82.0103 50.1585C82.0103 49.6403 82.1161 49.1697 82.3276 48.7467C82.5391 48.3237 82.8352 47.9589 83.2159 47.6522C83.6071 47.3456 84.0671 47.1129 84.5959 46.9543C85.1352 46.7851 85.7274 46.7005 86.3724 46.7005C87.0069 46.7005 87.6097 46.7798 88.1807 46.9384C88.7518 47.0971 89.2646 47.3297 89.7194 47.6364C89.8886 47.7527 89.9996 47.8955 90.0525 48.0647C90.1159 48.2339 90.1318 48.4031 90.1001 48.5723C90.0683 48.7309 89.9943 48.8684 89.878 48.9847C89.7617 49.101 89.6136 49.1697 89.4338 49.1909C89.2646 49.212 89.069 49.1592 88.8469 49.0323C88.4557 48.8102 88.0591 48.6516 87.6573 48.5564C87.2554 48.4612 86.8219 48.4136 86.3566 48.4136C85.8701 48.4136 85.4524 48.4824 85.1035 48.6198C84.7545 48.7573 84.4848 48.9529 84.2945 49.2067C84.1147 49.45 84.0248 49.7408 84.0248 50.0792C84.0248 50.4599 84.1517 50.7665 84.4055 50.9992C84.6593 51.2212 85.0929 51.3957 85.7062 51.5226L87.4352 51.8875C88.4821 52.1095 89.2594 52.4585 89.7669 52.9344C90.2851 53.4102 90.5442 54.0447 90.5442 54.8378C90.5442 55.3454 90.4384 55.8054 90.2269 56.2178C90.026 56.6303 89.7299 56.9845 89.3387 57.2806C88.958 57.5767 88.498 57.8041 87.9587 57.9627C87.4193 58.1213 86.8113 58.2006 86.1345 58.2006ZM95.5721 58.2006C94.8848 58.2006 94.3084 58.0843 93.8432 57.8516C93.3884 57.619 93.05 57.2806 92.828 56.8365C92.6059 56.3817 92.4949 55.8213 92.4949 55.1551V51.7764H91.67C91.4162 51.7764 91.2206 51.713 91.0831 51.5861C90.9457 51.4486 90.8769 51.2635 90.8769 51.0309C90.8769 50.7877 90.9457 50.6026 91.0831 50.4757C91.2206 50.3488 91.4162 50.2854 91.67 50.2854H92.4949V48.8419C92.4949 48.5141 92.5795 48.2656 92.7487 48.0964C92.9284 47.9272 93.1769 47.8426 93.4942 47.8426C93.8114 47.8426 94.0547 47.9272 94.2239 48.0964C94.393 48.2656 94.4776 48.5141 94.4776 48.8419V50.2854H96.159C96.4128 50.2854 96.6085 50.3488 96.7459 50.4757C96.8834 50.6026 96.9522 50.7877 96.9522 51.0309C96.9522 51.2635 96.8834 51.4486 96.7459 51.5861C96.6085 51.713 96.4128 51.7764 96.159 51.7764H94.4776V55.044C94.4776 55.5516 94.5887 55.9323 94.8108 56.1861C95.0328 56.4399 95.3924 56.5668 95.8894 56.5668C96.0692 56.5668 96.2278 56.5509 96.3652 56.5192C96.5027 56.4875 96.6243 56.4663 96.7301 56.4558C96.857 56.4452 96.9627 56.4875 97.0473 56.5827C97.1319 56.6673 97.1742 56.847 97.1742 57.122C97.1742 57.3335 97.1372 57.5238 97.0632 57.693C96.9997 57.8516 96.8781 57.9627 96.6984 58.0261C96.5609 58.0684 96.3811 58.1054 96.159 58.1372C95.937 58.1795 95.7413 58.2006 95.5721 58.2006ZM100.914 58.2006C100.269 58.2006 99.7353 58.0843 99.3123 57.8516C98.8893 57.6084 98.572 57.2489 98.3605 56.773C98.1596 56.2971 98.0592 55.705 98.0592 54.9964V51.1578C98.0592 50.8194 98.1438 50.5709 98.313 50.4123C98.4822 50.2431 98.7254 50.1585 99.0426 50.1585C99.3599 50.1585 99.6031 50.2431 99.7723 50.4123C99.952 50.5709 100.042 50.8194 100.042 51.1578V55.0282C100.042 55.5781 100.153 55.9852 100.375 56.2496C100.597 56.5139 100.951 56.6461 101.438 56.6461C101.967 56.6461 102.4 56.4663 102.739 56.1068C103.077 55.7367 103.246 55.2502 103.246 54.6475V51.1578C103.246 50.8194 103.331 50.5709 103.5 50.4123C103.669 50.2431 103.912 50.1585 104.23 50.1585C104.547 50.1585 104.79 50.2431 104.959 50.4123C105.139 50.5709 105.229 50.8194 105.229 51.1578V57.1537C105.229 57.8305 104.906 58.1689 104.261 58.1689C103.955 58.1689 103.717 58.0843 103.547 57.9151C103.378 57.7353 103.294 57.4815 103.294 57.1537V55.9482L103.516 56.424C103.294 56.9951 102.955 57.4339 102.501 57.7406C102.056 58.0473 101.528 58.2006 100.914 58.2006ZM110.275 58.2006C109.598 58.2006 109 58.0367 108.482 57.7089C107.975 57.3811 107.578 56.9158 107.293 56.313C107.007 55.6997 106.864 54.9806 106.864 54.1558C106.864 53.3203 107.007 52.6065 107.293 52.0144C107.578 51.4116 107.975 50.9463 108.482 50.6185C109 50.2907 109.598 50.1268 110.275 50.1268C110.92 50.1268 111.48 50.2854 111.956 50.6026C112.443 50.9199 112.77 51.3376 112.94 51.8557H112.765V47.7316C112.765 47.4037 112.85 47.1552 113.019 46.986C113.188 46.8168 113.431 46.7322 113.748 46.7322C114.066 46.7322 114.309 46.8168 114.478 46.986C114.658 47.1552 114.748 47.4037 114.748 47.7316V57.1537C114.748 57.4815 114.663 57.7353 114.494 57.9151C114.325 58.0843 114.082 58.1689 113.764 58.1689C113.447 58.1689 113.204 58.0843 113.035 57.9151C112.865 57.7353 112.781 57.4815 112.781 57.1537V55.9165L112.955 56.3923C112.797 56.9422 112.474 57.3811 111.988 57.7089C111.501 58.0367 110.93 58.2006 110.275 58.2006ZM110.83 56.6937C111.221 56.6937 111.565 56.5985 111.861 56.4082C112.157 56.2178 112.384 55.9376 112.543 55.5675C112.712 55.1868 112.797 54.7162 112.797 54.1558C112.797 53.3098 112.617 52.6806 112.257 52.2681C111.898 51.8452 111.422 51.6337 110.83 51.6337C110.439 51.6337 110.095 51.7288 109.799 51.9192C109.503 52.099 109.27 52.3792 109.101 52.7599C108.942 53.13 108.863 53.5953 108.863 54.1558C108.863 54.9912 109.043 55.6256 109.402 56.0592C109.762 56.4822 110.238 56.6937 110.83 56.6937ZM120.626 58.2006C119.749 58.2006 118.993 58.0367 118.358 57.7089C117.724 57.3811 117.232 56.9158 116.883 56.313C116.545 55.7102 116.375 54.9964 116.375 54.1716C116.375 53.3679 116.539 52.6647 116.867 52.0619C117.206 51.4592 117.666 50.9886 118.247 50.6502C118.839 50.3012 119.511 50.1268 120.262 50.1268C120.812 50.1268 121.303 50.2166 121.737 50.3964C122.181 50.5762 122.556 50.8353 122.863 51.1737C123.18 51.5121 123.418 51.9245 123.577 52.4109C123.746 52.8868 123.831 53.4261 123.831 54.0289C123.831 54.2192 123.762 54.3672 123.624 54.473C123.498 54.5682 123.312 54.6158 123.069 54.6158H117.978V53.4737H122.435L122.181 53.7116C122.181 53.2252 122.107 52.818 121.959 52.4902C121.821 52.1624 121.615 51.9139 121.34 51.7447C121.076 51.5649 120.743 51.475 120.341 51.475C119.897 51.475 119.516 51.5808 119.199 51.7923C118.892 51.9932 118.654 52.284 118.485 52.6647C118.326 53.0348 118.247 53.479 118.247 53.9971V54.1082C118.247 54.9753 118.448 55.6256 118.85 56.0592C119.262 56.4822 119.865 56.6937 120.658 56.6937C120.933 56.6937 121.24 56.662 121.578 56.5985C121.927 56.5245 122.255 56.4029 122.562 56.2337C122.784 56.1068 122.979 56.0539 123.149 56.0751C123.318 56.0857 123.45 56.1438 123.545 56.2496C123.651 56.3553 123.714 56.4875 123.735 56.6461C123.757 56.7942 123.725 56.9475 123.64 57.1061C123.566 57.2647 123.434 57.4022 123.244 57.5185C122.874 57.7512 122.445 57.9257 121.959 58.042C121.483 58.1477 121.039 58.2006 120.626 58.2006ZM126.384 58.1689C126.067 58.1689 125.824 58.0843 125.655 57.9151C125.485 57.7353 125.401 57.4815 125.401 57.1537V51.1578C125.401 50.83 125.485 50.5815 125.655 50.4123C125.824 50.2431 126.062 50.1585 126.368 50.1585C126.675 50.1585 126.913 50.2431 127.082 50.4123C127.251 50.5815 127.336 50.83 127.336 51.1578V52.2364L127.162 51.8399C127.394 51.2794 127.754 50.8564 128.24 50.5709C128.737 50.2748 129.298 50.1268 129.922 50.1268C130.546 50.1268 131.058 50.2431 131.46 50.4757C131.862 50.7084 132.163 51.0626 132.364 51.5385C132.565 52.0038 132.666 52.596 132.666 53.3151V57.1537C132.666 57.4815 132.581 57.7353 132.412 57.9151C132.243 58.0843 132 58.1689 131.682 58.1689C131.365 58.1689 131.117 58.0843 130.937 57.9151C130.768 57.7353 130.683 57.4815 130.683 57.1537V53.4102C130.683 52.8075 130.567 52.3686 130.334 52.0937C130.112 51.8187 129.763 51.6812 129.287 51.6812C128.706 51.6812 128.24 51.8663 127.891 52.2364C127.553 52.596 127.384 53.0771 127.384 53.6799V57.1537C127.384 57.8305 127.051 58.1689 126.384 58.1689ZM138.233 58.2006C137.545 58.2006 136.969 58.0843 136.504 57.8516C136.049 57.619 135.711 57.2806 135.489 56.8365C135.267 56.3817 135.156 55.8213 135.156 55.1551V51.7764H134.331C134.077 51.7764 133.881 51.713 133.744 51.5861C133.606 51.4486 133.538 51.2635 133.538 51.0309C133.538 50.7877 133.606 50.6026 133.744 50.4757C133.881 50.3488 134.077 50.2854 134.331 50.2854H135.156V48.8419C135.156 48.5141 135.24 48.2656 135.409 48.0964C135.589 47.9272 135.838 47.8426 136.155 47.8426C136.472 47.8426 136.715 47.9272 136.885 48.0964C137.054 48.2656 137.138 48.5141 137.138 48.8419V50.2854H138.82C139.073 50.2854 139.269 50.3488 139.407 50.4757C139.544 50.6026 139.613 50.7877 139.613 51.0309C139.613 51.2635 139.544 51.4486 139.407 51.5861C139.269 51.713 139.073 51.7764 138.82 51.7764H137.138V55.044C137.138 55.5516 137.249 55.9323 137.471 56.1861C137.693 56.4399 138.053 56.5668 138.55 56.5668C138.73 56.5668 138.888 56.5509 139.026 56.5192C139.163 56.4875 139.285 56.4663 139.391 56.4558C139.518 56.4452 139.623 56.4875 139.708 56.5827C139.793 56.6673 139.835 56.847 139.835 57.122C139.835 57.3335 139.798 57.5238 139.724 57.693C139.66 57.8516 139.539 57.9627 139.359 58.0261C139.222 58.0684 139.042 58.1054 138.82 58.1372C138.598 58.1795 138.402 58.2006 138.233 58.2006ZM146.295 58.042C145.967 58.042 145.714 57.9521 145.534 57.7723C145.354 57.582 145.264 57.3229 145.264 56.9951V47.8426C145.264 47.5042 145.349 47.2504 145.518 47.0812C145.698 46.9014 145.951 46.8116 146.279 46.8116C146.607 46.8116 146.856 46.9014 147.025 47.0812C147.205 47.2504 147.294 47.5042 147.294 47.8426V56.313H151.894C152.18 56.313 152.397 56.387 152.545 56.5351C152.703 56.6831 152.783 56.8946 152.783 57.1696C152.783 57.4445 152.703 57.6613 152.545 57.8199C152.397 57.968 152.18 58.042 151.894 58.042H146.295ZM154.964 58.153C154.647 58.153 154.404 58.0579 154.235 57.8675C154.065 57.6772 153.981 57.4128 153.981 57.0744V51.253C153.981 50.904 154.065 50.6396 154.235 50.4599C154.404 50.2695 154.647 50.1743 154.964 50.1743C155.281 50.1743 155.525 50.2695 155.694 50.4599C155.874 50.6396 155.964 50.904 155.964 51.253V57.0744C155.964 57.4128 155.879 57.6772 155.71 57.8675C155.541 58.0579 155.292 58.153 154.964 58.153ZM154.964 48.6992C154.594 48.6992 154.303 48.6093 154.092 48.4295C153.891 48.2392 153.79 47.9801 153.79 47.6522C153.79 47.3139 153.891 47.0548 154.092 46.875C154.303 46.6952 154.594 46.6053 154.964 46.6053C155.345 46.6053 155.636 46.6952 155.837 46.875C156.038 47.0548 156.138 47.3139 156.138 47.6522C156.138 47.9801 156.038 48.2392 155.837 48.4295C155.636 48.6093 155.345 48.6992 154.964 48.6992ZM160.863 58.2006C160.408 58.2006 159.927 58.153 159.42 58.0579C158.912 57.9627 158.457 57.7988 158.055 57.5661C157.886 57.4604 157.765 57.3388 157.691 57.2013C157.627 57.0532 157.601 56.9105 157.611 56.773C157.632 56.625 157.685 56.4981 157.77 56.3923C157.865 56.2866 157.981 56.2178 158.119 56.1861C158.267 56.1544 158.426 56.1808 158.595 56.2654C159.018 56.4663 159.414 56.6091 159.784 56.6937C160.155 56.7677 160.519 56.8047 160.879 56.8047C161.387 56.8047 161.762 56.7201 162.005 56.5509C162.259 56.3712 162.386 56.1385 162.386 55.853C162.386 55.6098 162.301 55.4247 162.132 55.2978C161.973 55.1604 161.73 55.0599 161.402 54.9964L159.816 54.6951C159.161 54.5682 158.658 54.3302 158.309 53.9813C157.971 53.6217 157.802 53.1617 157.802 52.6013C157.802 52.0937 157.939 51.6548 158.214 51.2847C158.5 50.9146 158.891 50.6291 159.388 50.4281C159.885 50.2272 160.456 50.1268 161.101 50.1268C161.566 50.1268 162 50.1796 162.402 50.2854C162.814 50.3805 163.211 50.5339 163.591 50.7454C163.75 50.83 163.856 50.941 163.909 51.0785C163.972 51.216 163.988 51.3587 163.956 51.5068C163.924 51.6442 163.861 51.7711 163.766 51.8875C163.671 51.9932 163.549 52.0619 163.401 52.0937C163.264 52.1148 163.105 52.0831 162.925 51.9985C162.597 51.8293 162.28 51.7077 161.973 51.6337C161.677 51.5596 161.392 51.5226 161.117 51.5226C160.599 51.5226 160.213 51.6125 159.959 51.7923C159.716 51.9721 159.594 52.21 159.594 52.5061C159.594 52.7282 159.668 52.9132 159.816 53.0613C159.964 53.2093 160.192 53.3098 160.498 53.3626L162.084 53.664C162.772 53.7909 163.29 54.0236 163.639 54.362C163.999 54.7004 164.178 55.1551 164.178 55.7261C164.178 56.4981 163.877 57.1061 163.274 57.5503C162.671 57.9838 161.868 58.2006 160.863 58.2006ZM169.245 58.2006C168.557 58.2006 167.981 58.0843 167.516 57.8516C167.061 57.619 166.723 57.2806 166.5 56.8365C166.278 56.3817 166.167 55.8213 166.167 55.1551V51.7764H165.343C165.089 51.7764 164.893 51.713 164.756 51.5861C164.618 51.4486 164.549 51.2635 164.549 51.0309C164.549 50.7877 164.618 50.6026 164.756 50.4757C164.893 50.3488 165.089 50.2854 165.343 50.2854H166.167V48.8419C166.167 48.5141 166.252 48.2656 166.421 48.0964C166.601 47.9272 166.849 47.8426 167.167 47.8426C167.484 47.8426 167.727 47.9272 167.896 48.0964C168.066 48.2656 168.15 48.5141 168.15 48.8419V50.2854H169.832C170.085 50.2854 170.281 50.3488 170.418 50.4757C170.556 50.6026 170.625 50.7877 170.625 51.0309C170.625 51.2635 170.556 51.4486 170.418 51.5861C170.281 51.713 170.085 51.7764 169.832 51.7764H168.15V55.044C168.15 55.5516 168.261 55.9323 168.483 56.1861C168.705 56.4399 169.065 56.5668 169.562 56.5668C169.742 56.5668 169.9 56.5509 170.038 56.5192C170.175 56.4875 170.297 56.4663 170.403 56.4558C170.529 56.4452 170.635 56.4875 170.72 56.5827C170.804 56.6673 170.847 56.847 170.847 57.122C170.847 57.3335 170.81 57.5238 170.736 57.693C170.672 57.8516 170.551 57.9627 170.371 58.0261C170.233 58.0684 170.054 58.1054 169.832 58.1372C169.609 58.1795 169.414 58.2006 169.245 58.2006Z" fill="black"/>
<rect x="77.3555" y="77.9961" width="218.37" height="184.002" rx="10.5748" fill="white"/>
<path d="M99.1941 108.858C99.0002 108.858 98.8504 108.81 98.7446 108.713C98.6477 108.607 98.5992 108.457 98.5992 108.264V100.134C98.5992 99.9403 98.6477 99.7949 98.7446 99.698C98.8504 99.5922 99.0002 99.5394 99.1941 99.5394H102.327C102.97 99.5394 103.512 99.6363 103.953 99.8302C104.402 100.015 104.746 100.288 104.984 100.65C105.222 101.011 105.341 101.452 105.341 101.972C105.341 102.553 105.169 103.038 104.825 103.426C104.49 103.813 104.032 104.069 103.45 104.192V104.007C104.111 104.087 104.627 104.324 104.997 104.721C105.376 105.118 105.565 105.642 105.565 106.294C105.565 107.122 105.297 107.757 104.759 108.197C104.221 108.638 103.464 108.858 102.485 108.858H99.1941ZM99.6567 107.986H102.38C103.085 107.986 103.613 107.845 103.966 107.563C104.318 107.281 104.495 106.854 104.495 106.281C104.495 105.699 104.318 105.272 103.966 104.999C103.613 104.717 103.085 104.576 102.38 104.576H99.6567V107.986ZM99.6567 103.703H102.168C102.856 103.703 103.376 103.562 103.728 103.28C104.089 102.998 104.27 102.593 104.27 102.064C104.27 101.518 104.089 101.108 103.728 100.835C103.376 100.553 102.856 100.412 102.168 100.412H99.6567V103.703ZM107.929 108.951C107.752 108.951 107.616 108.902 107.519 108.806C107.431 108.709 107.387 108.572 107.387 108.396V102.884C107.387 102.707 107.431 102.575 107.519 102.487C107.607 102.39 107.735 102.342 107.902 102.342C108.07 102.342 108.197 102.39 108.285 102.487C108.382 102.575 108.431 102.707 108.431 102.884V103.954H108.299C108.44 103.434 108.708 103.033 109.105 102.751C109.502 102.469 109.991 102.32 110.572 102.302C110.704 102.293 110.81 102.324 110.89 102.395C110.969 102.456 111.013 102.566 111.022 102.725C111.031 102.875 110.995 102.994 110.916 103.082C110.837 103.17 110.713 103.223 110.546 103.241L110.334 103.267C109.735 103.32 109.272 103.514 108.946 103.849C108.629 104.175 108.471 104.624 108.471 105.197V108.396C108.471 108.572 108.422 108.709 108.325 108.806C108.237 108.902 108.105 108.951 107.929 108.951ZM114.717 108.977C114.091 108.977 113.549 108.841 113.091 108.568C112.633 108.294 112.276 107.911 112.02 107.418C111.773 106.915 111.65 106.325 111.65 105.646C111.65 105.135 111.721 104.677 111.862 104.272C112.003 103.857 112.21 103.505 112.483 103.214C112.756 102.923 113.078 102.703 113.448 102.553C113.827 102.395 114.25 102.315 114.717 102.315C115.342 102.315 115.884 102.452 116.343 102.725C116.801 102.998 117.153 103.386 117.4 103.888C117.656 104.382 117.784 104.968 117.784 105.646C117.784 106.157 117.713 106.616 117.572 107.021C117.431 107.426 117.224 107.779 116.951 108.079C116.678 108.369 116.352 108.594 115.973 108.753C115.602 108.902 115.184 108.977 114.717 108.977ZM114.717 108.118C115.113 108.118 115.461 108.021 115.761 107.827C116.061 107.633 116.29 107.351 116.448 106.981C116.616 106.611 116.7 106.166 116.7 105.646C116.7 104.844 116.519 104.232 116.158 103.809C115.805 103.386 115.325 103.174 114.717 103.174C114.311 103.174 113.959 103.271 113.659 103.465C113.369 103.65 113.139 103.928 112.972 104.298C112.813 104.659 112.734 105.109 112.734 105.646C112.734 106.439 112.915 107.052 113.276 107.484C113.637 107.907 114.118 108.118 114.717 108.118ZM122.115 108.977C121.471 108.977 120.916 108.836 120.449 108.554C119.982 108.272 119.621 107.88 119.365 107.378C119.119 106.867 118.995 106.276 118.995 105.607C118.995 105.096 119.066 104.637 119.207 104.232C119.348 103.827 119.555 103.483 119.828 103.201C120.101 102.91 120.427 102.69 120.806 102.54C121.194 102.39 121.63 102.315 122.115 102.315C122.432 102.315 122.762 102.364 123.106 102.461C123.45 102.558 123.763 102.725 124.045 102.963C124.133 103.025 124.19 103.1 124.216 103.188C124.243 103.276 124.243 103.364 124.216 103.452C124.19 103.531 124.146 103.602 124.084 103.664C124.023 103.716 123.943 103.747 123.846 103.756C123.758 103.765 123.666 103.734 123.569 103.664C123.34 103.487 123.106 103.364 122.868 103.293C122.63 103.223 122.401 103.188 122.181 103.188C121.837 103.188 121.538 103.245 121.282 103.36C121.026 103.465 120.811 103.619 120.634 103.822C120.458 104.025 120.321 104.276 120.224 104.576C120.136 104.875 120.092 105.223 120.092 105.62C120.092 106.387 120.273 106.995 120.634 107.444C120.996 107.885 121.511 108.105 122.181 108.105C122.401 108.105 122.626 108.07 122.855 107.999C123.093 107.929 123.331 107.805 123.569 107.629C123.666 107.559 123.758 107.528 123.846 107.537C123.934 107.545 124.009 107.581 124.071 107.642C124.133 107.695 124.172 107.766 124.19 107.854C124.216 107.942 124.216 108.03 124.19 108.118C124.164 108.197 124.106 108.268 124.018 108.33C123.736 108.559 123.428 108.726 123.093 108.832C122.758 108.929 122.432 108.977 122.115 108.977ZM126.039 108.951C125.863 108.951 125.731 108.902 125.643 108.806C125.555 108.709 125.51 108.572 125.51 108.396V99.9888C125.51 99.8125 125.555 99.6804 125.643 99.5922C125.731 99.4953 125.863 99.4468 126.039 99.4468C126.207 99.4468 126.339 99.4953 126.436 99.5922C126.533 99.6804 126.581 99.8125 126.581 99.9888V105.289H126.608L129.317 102.699C129.441 102.584 129.546 102.496 129.635 102.434C129.732 102.373 129.859 102.342 130.018 102.342C130.159 102.342 130.269 102.381 130.348 102.461C130.428 102.531 130.463 102.624 130.454 102.738C130.454 102.844 130.401 102.959 130.296 103.082L127.414 105.818V105.237L130.547 108.184C130.67 108.308 130.732 108.427 130.732 108.541C130.732 108.656 130.688 108.753 130.6 108.832C130.52 108.911 130.415 108.951 130.282 108.951C130.124 108.951 129.996 108.92 129.899 108.858C129.802 108.788 129.683 108.687 129.542 108.554L126.608 105.845H126.581V108.396C126.581 108.766 126.4 108.951 126.039 108.951ZM99.1544 129.858C98.9782 129.858 98.8416 129.81 98.7446 129.713C98.6477 129.607 98.5992 129.466 98.5992 129.29V121.042C98.5992 120.857 98.6433 120.716 98.7314 120.619C98.8283 120.522 98.9649 120.473 99.1412 120.473C99.3174 120.473 99.4496 120.522 99.5377 120.619C99.6347 120.716 99.6831 120.857 99.6831 121.042V128.907H104.019C104.177 128.907 104.301 128.951 104.389 129.039C104.477 129.118 104.521 129.233 104.521 129.383C104.521 129.532 104.477 129.651 104.389 129.739C104.301 129.819 104.177 129.858 104.019 129.858H99.1544ZM106.504 132.33C106.371 132.33 106.266 132.295 106.186 132.225C106.107 132.154 106.059 132.057 106.041 131.934C106.032 131.819 106.054 131.7 106.107 131.577L107.019 129.528V129.991L104.481 124.095C104.428 123.963 104.411 123.84 104.428 123.725C104.446 123.61 104.499 123.518 104.587 123.447C104.675 123.377 104.798 123.342 104.957 123.342C105.098 123.342 105.208 123.373 105.287 123.434C105.367 123.496 105.437 123.606 105.499 123.765L107.667 129.079H107.31L109.504 123.765C109.575 123.606 109.65 123.496 109.729 123.434C109.808 123.373 109.923 123.342 110.073 123.342C110.214 123.342 110.319 123.377 110.39 123.447C110.469 123.518 110.513 123.61 110.522 123.725C110.54 123.831 110.522 123.95 110.469 124.082L107.085 131.907C107.015 132.066 106.935 132.176 106.847 132.238C106.768 132.299 106.653 132.33 106.504 132.33ZM114.221 129.977C113.648 129.977 113.146 129.841 112.714 129.568C112.291 129.294 111.961 128.911 111.723 128.418C111.494 127.915 111.379 127.325 111.379 126.646C111.379 125.959 111.494 125.369 111.723 124.875C111.961 124.373 112.291 123.989 112.714 123.725C113.146 123.452 113.648 123.315 114.221 123.315C114.803 123.315 115.301 123.461 115.715 123.751C116.129 124.042 116.406 124.434 116.547 124.928H116.402V120.989C116.402 120.813 116.446 120.68 116.534 120.592C116.631 120.495 116.768 120.447 116.944 120.447C117.111 120.447 117.239 120.495 117.327 120.592C117.424 120.68 117.473 120.813 117.473 120.989V129.396C117.473 129.572 117.429 129.709 117.341 129.806C117.252 129.902 117.12 129.951 116.944 129.951C116.777 129.951 116.644 129.902 116.547 129.806C116.459 129.709 116.415 129.572 116.415 129.396V128.14L116.561 128.325C116.42 128.827 116.138 129.228 115.715 129.528C115.301 129.828 114.803 129.977 114.221 129.977ZM114.446 129.118C114.842 129.118 115.19 129.021 115.49 128.827C115.79 128.633 116.019 128.351 116.177 127.981C116.345 127.611 116.429 127.166 116.429 126.646C116.429 125.844 116.248 125.232 115.887 124.809C115.534 124.386 115.054 124.174 114.446 124.174C114.04 124.174 113.688 124.271 113.388 124.465C113.097 124.65 112.868 124.928 112.701 125.298C112.542 125.659 112.463 126.109 112.463 126.646C112.463 127.439 112.644 128.052 113.005 128.484C113.366 128.907 113.846 129.118 114.446 129.118ZM120.011 129.924C119.835 129.924 119.702 129.876 119.614 129.779C119.526 129.673 119.482 129.528 119.482 129.343V123.937C119.482 123.751 119.526 123.61 119.614 123.514C119.702 123.417 119.835 123.368 120.011 123.368C120.178 123.368 120.31 123.417 120.407 123.514C120.504 123.61 120.553 123.751 120.553 123.937V129.343C120.553 129.528 120.504 129.673 120.407 129.779C120.319 129.876 120.187 129.924 120.011 129.924ZM120.011 121.888C119.791 121.888 119.619 121.83 119.495 121.716C119.372 121.592 119.31 121.429 119.31 121.227C119.31 121.015 119.372 120.857 119.495 120.751C119.619 120.636 119.791 120.579 120.011 120.579C120.24 120.579 120.412 120.636 120.526 120.751C120.65 120.857 120.711 121.015 120.711 121.227C120.711 121.429 120.65 121.592 120.526 121.716C120.412 121.83 120.24 121.888 120.011 121.888ZM124.577 129.977C124.136 129.977 123.74 129.894 123.387 129.726C123.043 129.55 122.77 129.312 122.568 129.012C122.365 128.713 122.264 128.378 122.264 128.008C122.264 127.532 122.383 127.157 122.62 126.884C122.867 126.611 123.268 126.417 123.823 126.303C124.387 126.188 125.154 126.131 126.123 126.131H126.718V126.831H126.137C125.423 126.831 124.859 126.867 124.445 126.937C124.039 126.999 123.753 127.109 123.585 127.268C123.427 127.426 123.347 127.651 123.347 127.942C123.347 128.303 123.471 128.598 123.718 128.827C123.973 129.056 124.317 129.171 124.749 129.171C125.101 129.171 125.41 129.087 125.674 128.92C125.947 128.752 126.159 128.523 126.308 128.233C126.467 127.942 126.546 127.607 126.546 127.228V125.721C126.546 125.175 126.436 124.782 126.216 124.545C125.996 124.298 125.634 124.174 125.132 124.174C124.824 124.174 124.515 124.214 124.207 124.293C123.898 124.373 123.572 124.5 123.229 124.677C123.105 124.738 122.999 124.76 122.911 124.743C122.823 124.716 122.753 124.668 122.7 124.597C122.647 124.527 122.616 124.448 122.607 124.36C122.598 124.263 122.616 124.17 122.66 124.082C122.713 123.994 122.792 123.923 122.898 123.87C123.286 123.677 123.669 123.536 124.048 123.447C124.427 123.359 124.788 123.315 125.132 123.315C125.687 123.315 126.145 123.408 126.507 123.593C126.868 123.769 127.137 124.042 127.313 124.412C127.489 124.774 127.577 125.241 127.577 125.814V129.396C127.577 129.572 127.533 129.709 127.445 129.806C127.366 129.902 127.247 129.951 127.088 129.951C126.921 129.951 126.793 129.902 126.705 129.806C126.617 129.709 126.573 129.572 126.573 129.396V128.365H126.692C126.621 128.7 126.485 128.986 126.282 129.224C126.088 129.462 125.846 129.647 125.555 129.779C125.264 129.911 124.938 129.977 124.577 129.977ZM102.856 150.977C101.86 150.977 101.018 150.788 100.331 150.409C99.6523 150.03 99.1368 149.484 98.7843 148.77C98.4318 148.056 98.2555 147.201 98.2555 146.205C98.2555 145.465 98.3525 144.8 98.5464 144.209C98.749 143.619 99.0398 143.121 99.4188 142.716C99.8065 142.302 100.274 141.984 100.82 141.764C101.375 141.535 102.001 141.42 102.697 141.42C103.252 141.42 103.79 141.5 104.31 141.658C104.83 141.808 105.292 142.05 105.698 142.385C105.803 142.465 105.869 142.553 105.896 142.65C105.922 142.747 105.918 142.844 105.883 142.941C105.856 143.037 105.808 143.121 105.737 143.192C105.676 143.253 105.592 143.289 105.486 143.297C105.389 143.306 105.288 143.275 105.182 143.205C104.821 142.923 104.437 142.72 104.032 142.597C103.627 142.465 103.177 142.399 102.684 142.399C101.979 142.399 101.38 142.548 100.886 142.848C100.401 143.148 100.031 143.579 99.7757 144.143C99.5289 144.707 99.4056 145.395 99.4056 146.205C99.4056 147.439 99.692 148.382 100.265 149.034C100.846 149.686 101.719 150.012 102.882 150.012C103.305 150.012 103.719 149.973 104.125 149.893C104.53 149.805 104.913 149.686 105.275 149.537L105.037 150.158V146.866H103.146C102.988 146.866 102.869 146.827 102.789 146.747C102.71 146.668 102.671 146.562 102.671 146.43C102.671 146.289 102.71 146.183 102.789 146.113C102.869 146.042 102.988 146.007 103.146 146.007H105.513C105.662 146.007 105.777 146.047 105.856 146.126C105.935 146.205 105.975 146.32 105.975 146.47V149.92C105.975 150.052 105.953 150.162 105.909 150.25C105.865 150.338 105.79 150.405 105.684 150.449C105.314 150.598 104.869 150.726 104.349 150.832C103.838 150.929 103.34 150.977 102.856 150.977ZM110.067 150.977C109.627 150.977 109.23 150.894 108.878 150.726C108.534 150.55 108.261 150.312 108.058 150.012C107.856 149.713 107.754 149.378 107.754 149.008C107.754 148.532 107.873 148.157 108.111 147.884C108.358 147.611 108.759 147.417 109.314 147.303C109.878 147.188 110.645 147.131 111.614 147.131H112.209V147.831H111.627C110.913 147.831 110.349 147.867 109.935 147.937C109.53 147.999 109.243 148.109 109.076 148.268C108.917 148.426 108.838 148.651 108.838 148.942C108.838 149.303 108.961 149.598 109.208 149.827C109.464 150.056 109.807 150.171 110.239 150.171C110.592 150.171 110.9 150.087 111.165 149.92C111.438 149.752 111.649 149.523 111.799 149.233C111.958 148.942 112.037 148.607 112.037 148.228V146.721C112.037 146.175 111.927 145.782 111.707 145.545C111.486 145.298 111.125 145.174 110.623 145.174C110.314 145.174 110.006 145.214 109.697 145.293C109.389 145.373 109.063 145.5 108.719 145.677C108.596 145.738 108.49 145.76 108.402 145.743C108.314 145.716 108.243 145.668 108.19 145.597C108.138 145.527 108.107 145.448 108.098 145.36C108.089 145.263 108.107 145.17 108.151 145.082C108.204 144.994 108.283 144.923 108.389 144.87C108.776 144.677 109.16 144.536 109.539 144.447C109.918 144.359 110.279 144.315 110.623 144.315C111.178 144.315 111.636 144.408 111.997 144.593C112.359 144.769 112.627 145.042 112.804 145.412C112.98 145.774 113.068 146.241 113.068 146.814V150.396C113.068 150.572 113.024 150.709 112.936 150.806C112.857 150.902 112.738 150.951 112.579 150.951C112.411 150.951 112.284 150.902 112.196 150.806C112.107 150.709 112.063 150.572 112.063 150.396V149.365H112.182C112.112 149.7 111.975 149.986 111.773 150.224C111.579 150.462 111.336 150.647 111.046 150.779C110.755 150.911 110.429 150.977 110.067 150.977ZM117.011 150.977C116.376 150.977 115.892 150.783 115.557 150.396C115.222 150.008 115.054 149.453 115.054 148.73V141.989C115.054 141.813 115.098 141.68 115.187 141.592C115.275 141.495 115.407 141.447 115.583 141.447C115.751 141.447 115.883 141.495 115.98 141.592C116.077 141.68 116.125 141.813 116.125 141.989V148.651C116.125 149.127 116.218 149.484 116.403 149.722C116.597 149.951 116.879 150.065 117.249 150.065C117.328 150.065 117.398 150.061 117.46 150.052C117.522 150.043 117.584 150.039 117.645 150.039C117.742 150.03 117.808 150.052 117.844 150.105C117.888 150.158 117.91 150.264 117.91 150.422C117.91 150.581 117.874 150.7 117.804 150.779C117.733 150.858 117.619 150.911 117.46 150.938C117.39 150.947 117.315 150.955 117.235 150.964C117.156 150.973 117.081 150.977 117.011 150.977ZM121.796 150.977C121.117 150.977 120.531 150.845 120.038 150.581C119.553 150.308 119.174 149.924 118.901 149.431C118.637 148.937 118.505 148.347 118.505 147.66C118.505 146.99 118.637 146.408 118.901 145.915C119.166 145.412 119.527 145.02 119.985 144.738C120.452 144.456 120.99 144.315 121.598 144.315C122.03 144.315 122.417 144.39 122.761 144.54C123.105 144.681 123.395 144.888 123.633 145.161C123.88 145.434 124.065 145.765 124.189 146.153C124.321 146.54 124.387 146.977 124.387 147.461C124.387 147.602 124.347 147.708 124.268 147.778C124.189 147.84 124.074 147.871 123.924 147.871H119.324V147.17H123.673L123.462 147.342C123.462 146.866 123.391 146.465 123.25 146.139C123.109 145.805 122.902 145.549 122.629 145.373C122.364 145.196 122.03 145.108 121.624 145.108C121.175 145.108 120.791 145.214 120.474 145.426C120.166 145.628 119.932 145.915 119.774 146.285C119.615 146.646 119.536 147.069 119.536 147.554V147.633C119.536 148.444 119.73 149.061 120.117 149.484C120.514 149.907 121.073 150.118 121.796 150.118C122.096 150.118 122.391 150.079 122.682 149.999C122.981 149.92 123.272 149.788 123.554 149.603C123.677 149.523 123.788 149.488 123.885 149.497C123.99 149.497 124.074 149.528 124.136 149.589C124.197 149.642 124.237 149.713 124.255 149.801C124.281 149.88 124.272 149.968 124.228 150.065C124.193 150.162 124.118 150.246 124.004 150.316C123.713 150.528 123.369 150.691 122.972 150.806C122.576 150.92 122.184 150.977 121.796 150.977ZM99.128 171.951C98.9693 171.951 98.846 171.907 98.7579 171.819C98.6697 171.722 98.6257 171.59 98.6257 171.422V162.976C98.6257 162.799 98.6697 162.667 98.7579 162.579C98.846 162.491 98.9693 162.447 99.128 162.447C99.269 162.447 99.3791 162.478 99.4584 162.539C99.5466 162.592 99.6259 162.685 99.6964 162.817L103.318 169.638H102.922L106.53 162.817C106.601 162.685 106.676 162.592 106.755 162.539C106.834 162.478 106.949 162.447 107.099 162.447C107.249 162.447 107.368 162.491 107.456 162.579C107.544 162.667 107.588 162.799 107.588 162.976V171.422C107.588 171.59 107.544 171.722 107.456 171.819C107.376 171.907 107.253 171.951 107.086 171.951C106.927 171.951 106.804 171.907 106.715 171.819C106.627 171.722 106.583 171.59 106.583 171.422V163.993H106.9L103.596 170.193C103.534 170.307 103.468 170.391 103.398 170.444C103.336 170.488 103.243 170.51 103.12 170.51C102.997 170.51 102.9 170.484 102.829 170.431C102.759 170.378 102.697 170.299 102.644 170.193L99.2998 163.98H99.6171V171.422C99.6171 171.59 99.573 171.722 99.4849 171.819C99.4056 171.907 99.2866 171.951 99.128 171.951ZM111.784 171.977C111.344 171.977 110.947 171.894 110.595 171.726C110.251 171.55 109.978 171.312 109.775 171.012C109.572 170.713 109.471 170.378 109.471 170.008C109.471 169.532 109.59 169.157 109.828 168.884C110.075 168.611 110.476 168.417 111.031 168.303C111.595 168.188 112.361 168.131 113.331 168.131H113.926V168.831H113.344C112.63 168.831 112.066 168.867 111.652 168.937C111.247 168.999 110.96 169.109 110.793 169.268C110.634 169.426 110.555 169.651 110.555 169.942C110.555 170.303 110.678 170.598 110.925 170.827C111.181 171.056 111.524 171.171 111.956 171.171C112.309 171.171 112.617 171.087 112.881 170.92C113.155 170.752 113.366 170.523 113.516 170.233C113.675 169.942 113.754 169.607 113.754 169.228V167.721C113.754 167.175 113.644 166.782 113.423 166.545C113.203 166.298 112.842 166.174 112.339 166.174C112.031 166.174 111.723 166.214 111.414 166.293C111.106 166.373 110.78 166.5 110.436 166.677C110.313 166.738 110.207 166.76 110.119 166.743C110.031 166.716 109.96 166.668 109.907 166.597C109.854 166.527 109.824 166.448 109.815 166.36C109.806 166.263 109.824 166.17 109.868 166.082C109.92 165.994 110 165.923 110.106 165.87C110.493 165.677 110.877 165.536 111.256 165.447C111.634 165.359 111.996 165.315 112.339 165.315C112.895 165.315 113.353 165.408 113.714 165.593C114.075 165.769 114.344 166.042 114.521 166.412C114.697 166.774 114.785 167.241 114.785 167.814V171.396C114.785 171.572 114.741 171.709 114.653 171.806C114.573 171.902 114.454 171.951 114.296 171.951C114.128 171.951 114.001 171.902 113.912 171.806C113.824 171.709 113.78 171.572 113.78 171.396V170.365H113.899C113.829 170.7 113.692 170.986 113.489 171.224C113.296 171.462 113.053 171.647 112.762 171.779C112.472 171.911 112.146 171.977 111.784 171.977ZM117.313 171.951C117.137 171.951 117 171.902 116.903 171.806C116.815 171.709 116.771 171.572 116.771 171.396V165.884C116.771 165.707 116.815 165.575 116.903 165.487C116.992 165.39 117.119 165.342 117.287 165.342C117.454 165.342 117.582 165.39 117.67 165.487C117.767 165.575 117.816 165.707 117.816 165.884V166.954H117.683C117.824 166.434 118.093 166.033 118.49 165.751C118.886 165.469 119.375 165.32 119.957 165.302C120.089 165.293 120.195 165.324 120.274 165.395C120.353 165.456 120.398 165.566 120.406 165.725C120.415 165.875 120.38 165.994 120.301 166.082C120.221 166.17 120.098 166.223 119.93 166.241L119.719 166.267C119.12 166.32 118.657 166.514 118.331 166.849C118.014 167.175 117.855 167.624 117.855 168.197V171.396C117.855 171.572 117.807 171.709 117.71 171.806C117.622 171.902 117.489 171.951 117.313 171.951ZM122.037 171.924C121.861 171.924 121.729 171.876 121.641 171.779C121.553 171.673 121.509 171.528 121.509 171.343V165.937C121.509 165.751 121.553 165.61 121.641 165.514C121.729 165.417 121.861 165.368 122.037 165.368C122.205 165.368 122.337 165.417 122.434 165.514C122.531 165.61 122.579 165.751 122.579 165.937V171.343C122.579 171.528 122.531 171.673 122.434 171.779C122.346 171.876 122.214 171.924 122.037 171.924ZM122.037 163.888C121.817 163.888 121.645 163.83 121.522 163.716C121.399 163.592 121.337 163.429 121.337 163.227C121.337 163.015 121.399 162.857 121.522 162.751C121.645 162.636 121.817 162.579 122.037 162.579C122.267 162.579 122.438 162.636 122.553 162.751C122.676 162.857 122.738 163.015 122.738 163.227C122.738 163.429 122.676 163.592 122.553 163.716C122.438 163.83 122.267 163.888 122.037 163.888ZM127.476 171.977C126.797 171.977 126.211 171.845 125.718 171.581C125.233 171.308 124.854 170.924 124.581 170.431C124.317 169.937 124.184 169.347 124.184 168.66C124.184 167.99 124.317 167.408 124.581 166.915C124.845 166.412 125.207 166.02 125.665 165.738C126.132 165.456 126.67 165.315 127.278 165.315C127.709 165.315 128.097 165.39 128.441 165.54C128.785 165.681 129.075 165.888 129.313 166.161C129.56 166.434 129.745 166.765 129.868 167.153C130.001 167.54 130.067 167.977 130.067 168.461C130.067 168.602 130.027 168.708 129.948 168.778C129.868 168.84 129.754 168.871 129.604 168.871H125.004V168.17H129.353L129.141 168.342C129.141 167.866 129.071 167.465 128.93 167.139C128.789 166.805 128.582 166.549 128.309 166.373C128.044 166.196 127.709 166.108 127.304 166.108C126.855 166.108 126.471 166.214 126.154 166.426C125.846 166.628 125.612 166.915 125.453 167.285C125.295 167.646 125.216 168.069 125.216 168.554V168.633C125.216 169.444 125.409 170.061 125.797 170.484C126.194 170.907 126.753 171.118 127.476 171.118C127.775 171.118 128.071 171.079 128.362 170.999C128.661 170.92 128.952 170.788 129.234 170.603C129.357 170.523 129.467 170.488 129.564 170.497C129.67 170.497 129.754 170.528 129.816 170.589C129.877 170.642 129.917 170.713 129.935 170.801C129.961 170.88 129.952 170.968 129.908 171.065C129.873 171.162 129.798 171.246 129.683 171.316C129.393 171.528 129.049 171.691 128.652 171.806C128.256 171.92 127.864 171.977 127.476 171.977ZM102.856 192.977C101.86 192.977 101.018 192.788 100.331 192.409C99.6523 192.03 99.1368 191.484 98.7843 190.77C98.4318 190.056 98.2555 189.201 98.2555 188.205C98.2555 187.465 98.3525 186.8 98.5464 186.209C98.749 185.619 99.0398 185.121 99.4188 184.716C99.8065 184.302 100.274 183.984 100.82 183.764C101.375 183.535 102.001 183.42 102.697 183.42C103.252 183.42 103.79 183.5 104.31 183.658C104.83 183.808 105.292 184.05 105.698 184.385C105.803 184.465 105.869 184.553 105.896 184.65C105.922 184.747 105.918 184.844 105.883 184.941C105.856 185.037 105.808 185.121 105.737 185.192C105.676 185.253 105.592 185.289 105.486 185.297C105.389 185.306 105.288 185.275 105.182 185.205C104.821 184.923 104.437 184.72 104.032 184.597C103.627 184.465 103.177 184.399 102.684 184.399C101.979 184.399 101.38 184.548 100.886 184.848C100.401 185.148 100.031 185.579 99.7757 186.143C99.5289 186.707 99.4056 187.395 99.4056 188.205C99.4056 189.439 99.692 190.382 100.265 191.034C100.846 191.686 101.719 192.012 102.882 192.012C103.305 192.012 103.719 191.973 104.125 191.893C104.53 191.805 104.913 191.686 105.275 191.537L105.037 192.158V188.866H103.146C102.988 188.866 102.869 188.827 102.789 188.747C102.71 188.668 102.671 188.562 102.671 188.43C102.671 188.289 102.71 188.183 102.789 188.113C102.869 188.042 102.988 188.007 103.146 188.007H105.513C105.662 188.007 105.777 188.047 105.856 188.126C105.935 188.205 105.975 188.32 105.975 188.47V191.92C105.975 192.052 105.953 192.162 105.909 192.25C105.865 192.338 105.79 192.405 105.684 192.449C105.314 192.598 104.869 192.726 104.349 192.832C103.838 192.929 103.34 192.977 102.856 192.977ZM110.319 192.977C109.799 192.977 109.367 192.885 109.023 192.7C108.688 192.506 108.433 192.22 108.256 191.841C108.089 191.462 108.005 190.99 108.005 190.426V186.884C108.005 186.699 108.049 186.562 108.138 186.474C108.234 186.386 108.367 186.342 108.534 186.342C108.71 186.342 108.843 186.386 108.931 186.474C109.028 186.562 109.076 186.699 109.076 186.884V190.413C109.076 190.977 109.191 191.4 109.42 191.682C109.658 191.955 110.028 192.092 110.53 192.092C111.076 192.092 111.521 191.907 111.865 191.537C112.209 191.166 112.381 190.682 112.381 190.083V186.884C112.381 186.699 112.425 186.562 112.513 186.474C112.61 186.386 112.746 186.342 112.923 186.342C113.09 186.342 113.218 186.386 113.306 186.474C113.403 186.562 113.451 186.699 113.451 186.884V192.396C113.451 192.766 113.28 192.951 112.936 192.951C112.768 192.951 112.636 192.902 112.539 192.806C112.451 192.709 112.407 192.572 112.407 192.396V191.193L112.579 191.378C112.403 191.898 112.112 192.294 111.707 192.568C111.31 192.841 110.847 192.977 110.319 192.977ZM117.622 192.977C117.226 192.977 116.825 192.929 116.42 192.832C116.023 192.735 115.653 192.568 115.309 192.33C115.221 192.268 115.159 192.197 115.124 192.118C115.089 192.03 115.076 191.946 115.084 191.867C115.102 191.779 115.137 191.704 115.19 191.642C115.252 191.581 115.322 191.545 115.402 191.537C115.49 191.519 115.587 191.537 115.693 191.589C116.036 191.801 116.367 191.951 116.684 192.039C117.01 192.118 117.332 192.158 117.649 192.158C118.151 192.158 118.53 192.065 118.786 191.88C119.041 191.695 119.169 191.444 119.169 191.127C119.169 190.88 119.085 190.686 118.918 190.545C118.75 190.395 118.486 190.281 118.125 190.201L116.922 189.937C116.367 189.823 115.952 189.624 115.679 189.342C115.415 189.06 115.283 188.695 115.283 188.245C115.283 187.849 115.384 187.509 115.587 187.227C115.798 186.937 116.093 186.712 116.472 186.553C116.851 186.395 117.292 186.315 117.794 186.315C118.182 186.315 118.548 186.368 118.891 186.474C119.244 186.571 119.561 186.729 119.843 186.95C119.931 187.011 119.989 187.086 120.015 187.174C120.05 187.254 120.055 187.337 120.028 187.426C120.011 187.505 119.971 187.575 119.909 187.637C119.848 187.69 119.773 187.721 119.684 187.73C119.596 187.738 119.504 187.712 119.407 187.65C119.143 187.474 118.874 187.346 118.601 187.267C118.327 187.179 118.059 187.135 117.794 187.135C117.301 187.135 116.926 187.232 116.671 187.426C116.415 187.619 116.287 187.875 116.287 188.192C116.287 188.439 116.367 188.642 116.525 188.8C116.684 188.959 116.931 189.074 117.266 189.144L118.468 189.395C119.041 189.519 119.469 189.717 119.751 189.99C120.041 190.254 120.187 190.616 120.187 191.074C120.187 191.656 119.953 192.118 119.486 192.462C119.019 192.806 118.398 192.977 117.622 192.977ZM124.332 192.977C123.829 192.977 123.406 192.889 123.063 192.713C122.728 192.528 122.477 192.264 122.309 191.92C122.142 191.567 122.058 191.14 122.058 190.638V187.267H121.172C121.023 187.267 120.908 187.232 120.829 187.161C120.749 187.082 120.71 186.976 120.71 186.844C120.71 186.712 120.749 186.61 120.829 186.54C120.908 186.469 121.023 186.434 121.172 186.434H122.058V184.914C122.058 184.738 122.107 184.606 122.203 184.518C122.3 184.421 122.433 184.372 122.6 184.372C122.767 184.372 122.895 184.421 122.983 184.518C123.08 184.606 123.129 184.738 123.129 184.914V186.434H124.794C124.944 186.434 125.059 186.469 125.138 186.54C125.217 186.61 125.257 186.712 125.257 186.844C125.257 186.976 125.217 187.082 125.138 187.161C125.059 187.232 124.944 187.267 124.794 187.267H123.129V190.532C123.129 191.034 123.234 191.418 123.446 191.682C123.657 191.938 124.001 192.065 124.477 192.065C124.644 192.065 124.785 192.048 124.9 192.012C125.023 191.977 125.125 191.96 125.204 191.96C125.283 191.951 125.349 191.977 125.402 192.039C125.455 192.101 125.482 192.206 125.482 192.356C125.482 192.462 125.46 192.559 125.416 192.647C125.38 192.735 125.314 192.797 125.217 192.832C125.112 192.867 124.971 192.898 124.794 192.924C124.627 192.96 124.473 192.977 124.332 192.977ZM128.398 192.977C127.957 192.977 127.561 192.894 127.208 192.726C126.864 192.55 126.591 192.312 126.389 192.012C126.186 191.713 126.085 191.378 126.085 191.008C126.085 190.532 126.203 190.157 126.441 189.884C126.688 189.611 127.089 189.417 127.644 189.303C128.208 189.188 128.975 189.131 129.944 189.131H130.539V189.831H129.958C129.244 189.831 128.68 189.867 128.266 189.937C127.86 189.999 127.574 190.109 127.406 190.268C127.248 190.426 127.168 190.651 127.168 190.942C127.168 191.303 127.292 191.598 127.539 191.827C127.794 192.056 128.138 192.171 128.57 192.171C128.922 192.171 129.231 192.087 129.495 191.92C129.768 191.752 129.98 191.523 130.129 191.233C130.288 190.942 130.367 190.607 130.367 190.228V188.721C130.367 188.175 130.257 187.782 130.037 187.545C129.817 187.298 129.455 187.174 128.953 187.174C128.645 187.174 128.336 187.214 128.028 187.293C127.719 187.373 127.393 187.5 127.049 187.677C126.926 187.738 126.82 187.76 126.732 187.743C126.644 187.716 126.574 187.668 126.521 187.597C126.468 187.527 126.437 187.448 126.428 187.36C126.419 187.263 126.437 187.17 126.481 187.082C126.534 186.994 126.613 186.923 126.719 186.87C127.107 186.677 127.49 186.536 127.869 186.447C128.248 186.359 128.609 186.315 128.953 186.315C129.508 186.315 129.966 186.408 130.328 186.593C130.689 186.769 130.958 187.042 131.134 187.412C131.31 187.774 131.398 188.241 131.398 188.814V192.396C131.398 192.572 131.354 192.709 131.266 192.806C131.187 192.902 131.068 192.951 130.909 192.951C130.742 192.951 130.614 192.902 130.526 192.806C130.438 192.709 130.394 192.572 130.394 192.396V191.365H130.513C130.442 191.7 130.306 191.986 130.103 192.224C129.909 192.462 129.667 192.647 129.376 192.779C129.085 192.911 128.759 192.977 128.398 192.977ZM135.713 192.951C135.563 192.951 135.431 192.911 135.316 192.832C135.202 192.744 135.105 192.612 135.025 192.435L132.739 187.095C132.677 186.963 132.655 186.84 132.673 186.725C132.69 186.61 132.743 186.518 132.831 186.447C132.919 186.377 133.043 186.342 133.201 186.342C133.342 186.342 133.452 186.373 133.532 186.434C133.611 186.496 133.682 186.606 133.743 186.765L135.911 192.065H135.554L137.762 186.765C137.823 186.606 137.894 186.496 137.973 186.434C138.052 186.373 138.167 186.342 138.317 186.342C138.458 186.342 138.564 186.377 138.634 186.447C138.713 186.518 138.757 186.61 138.766 186.725C138.784 186.831 138.766 186.95 138.713 187.082L136.4 192.435C136.338 192.612 136.246 192.744 136.123 192.832C136.008 192.911 135.871 192.951 135.713 192.951ZM142.703 192.977C142.077 192.977 141.535 192.841 141.077 192.568C140.619 192.294 140.262 191.911 140.006 191.418C139.76 190.915 139.636 190.325 139.636 189.646C139.636 189.135 139.707 188.677 139.848 188.272C139.989 187.857 140.196 187.505 140.469 187.214C140.742 186.923 141.064 186.703 141.434 186.553C141.813 186.395 142.236 186.315 142.703 186.315C143.329 186.315 143.871 186.452 144.329 186.725C144.787 186.998 145.139 187.386 145.386 187.888C145.642 188.382 145.77 188.968 145.77 189.646C145.77 190.157 145.699 190.616 145.558 191.021C145.417 191.426 145.21 191.779 144.937 192.079C144.664 192.369 144.338 192.594 143.959 192.753C143.589 192.902 143.17 192.977 142.703 192.977ZM142.703 192.118C143.099 192.118 143.448 192.021 143.747 191.827C144.047 191.633 144.276 191.351 144.434 190.981C144.602 190.611 144.686 190.166 144.686 189.646C144.686 188.844 144.505 188.232 144.144 187.809C143.791 187.386 143.311 187.174 142.703 187.174C142.297 187.174 141.945 187.271 141.645 187.465C141.355 187.65 141.125 187.928 140.958 188.298C140.799 188.659 140.72 189.109 140.72 189.646C140.72 190.439 140.901 191.052 141.262 191.484C141.623 191.907 142.104 192.118 142.703 192.118ZM99.128 213.951C98.9693 213.951 98.846 213.907 98.7579 213.819C98.6697 213.722 98.6257 213.59 98.6257 213.422V204.976C98.6257 204.799 98.6697 204.667 98.7579 204.579C98.846 204.491 98.9693 204.447 99.128 204.447C99.269 204.447 99.3791 204.478 99.4584 204.539C99.5466 204.592 99.6259 204.685 99.6964 204.817L103.318 211.638H102.922L106.53 204.817C106.601 204.685 106.676 204.592 106.755 204.539C106.834 204.478 106.949 204.447 107.099 204.447C107.249 204.447 107.368 204.491 107.456 204.579C107.544 204.667 107.588 204.799 107.588 204.976V213.422C107.588 213.59 107.544 213.722 107.456 213.819C107.376 213.907 107.253 213.951 107.086 213.951C106.927 213.951 106.804 213.907 106.715 213.819C106.627 213.722 106.583 213.59 106.583 213.422V205.993H106.9L103.596 212.193C103.534 212.307 103.468 212.391 103.398 212.444C103.336 212.488 103.243 212.51 103.12 212.51C102.997 212.51 102.9 212.484 102.829 212.431C102.759 212.378 102.697 212.299 102.644 212.193L99.2998 205.98H99.6171V213.422C99.6171 213.59 99.573 213.722 99.4849 213.819C99.4056 213.907 99.2866 213.951 99.128 213.951ZM110.291 213.924C110.114 213.924 109.982 213.876 109.894 213.779C109.806 213.673 109.762 213.528 109.762 213.343V207.937C109.762 207.751 109.806 207.61 109.894 207.514C109.982 207.417 110.114 207.368 110.291 207.368C110.458 207.368 110.59 207.417 110.687 207.514C110.784 207.61 110.833 207.751 110.833 207.937V213.343C110.833 213.528 110.784 213.673 110.687 213.779C110.599 213.876 110.467 213.924 110.291 213.924ZM110.291 205.888C110.07 205.888 109.898 205.83 109.775 205.716C109.652 205.592 109.59 205.429 109.59 205.227C109.59 205.015 109.652 204.857 109.775 204.751C109.898 204.636 110.07 204.579 110.291 204.579C110.52 204.579 110.692 204.636 110.806 204.751C110.929 204.857 110.991 205.015 110.991 205.227C110.991 205.429 110.929 205.592 110.806 205.716C110.692 205.83 110.52 205.888 110.291 205.888ZM113.363 213.951C113.187 213.951 113.054 213.902 112.966 213.806C112.878 213.709 112.834 213.572 112.834 213.396V204.989C112.834 204.813 112.878 204.68 112.966 204.592C113.054 204.495 113.187 204.447 113.363 204.447C113.53 204.447 113.662 204.495 113.759 204.592C113.856 204.68 113.905 204.813 113.905 204.989V210.289H113.931L116.641 207.699C116.764 207.584 116.87 207.496 116.958 207.434C117.055 207.373 117.183 207.342 117.342 207.342C117.483 207.342 117.593 207.381 117.672 207.461C117.751 207.531 117.787 207.624 117.778 207.738C117.778 207.844 117.725 207.959 117.619 208.082L114.738 210.818V210.237L117.87 213.184C117.994 213.308 118.055 213.427 118.055 213.541C118.055 213.656 118.011 213.753 117.923 213.832C117.844 213.911 117.738 213.951 117.606 213.951C117.447 213.951 117.32 213.92 117.223 213.858C117.126 213.788 117.007 213.687 116.866 213.554L113.931 210.845H113.905V213.396C113.905 213.766 113.724 213.951 113.363 213.951ZM122.17 213.977C121.492 213.977 120.906 213.845 120.412 213.581C119.928 213.308 119.549 212.924 119.276 212.431C119.011 211.937 118.879 211.347 118.879 210.66C118.879 209.99 119.011 209.408 119.276 208.915C119.54 208.412 119.901 208.02 120.359 207.738C120.827 207.456 121.364 207.315 121.972 207.315C122.404 207.315 122.792 207.39 123.135 207.54C123.479 207.681 123.77 207.888 124.008 208.161C124.255 208.434 124.44 208.765 124.563 209.153C124.695 209.54 124.761 209.977 124.761 210.461C124.761 210.602 124.722 210.708 124.642 210.778C124.563 210.84 124.448 210.871 124.299 210.871H119.699V210.17H124.047L123.836 210.342C123.836 209.866 123.765 209.465 123.624 209.139C123.483 208.805 123.276 208.549 123.003 208.373C122.739 208.196 122.404 208.108 121.999 208.108C121.549 208.108 121.166 208.214 120.849 208.426C120.54 208.628 120.307 208.915 120.148 209.285C119.989 209.646 119.91 210.069 119.91 210.554V210.633C119.91 211.444 120.104 212.061 120.492 212.484C120.888 212.907 121.448 213.118 122.17 213.118C122.47 213.118 122.765 213.079 123.056 212.999C123.356 212.92 123.646 212.788 123.928 212.603C124.052 212.523 124.162 212.488 124.259 212.497C124.365 212.497 124.448 212.528 124.51 212.589C124.572 212.642 124.611 212.713 124.629 212.801C124.655 212.88 124.647 212.968 124.603 213.065C124.567 213.162 124.492 213.246 124.378 213.316C124.087 213.528 123.743 213.691 123.347 213.806C122.95 213.92 122.558 213.977 122.17 213.977ZM99.1412 234.951C98.9649 234.951 98.8283 234.902 98.7314 234.806C98.6433 234.7 98.5992 234.559 98.5992 234.383V226.015C98.5992 225.83 98.6433 225.689 98.7314 225.592C98.8283 225.495 98.9649 225.447 99.1412 225.447C99.3174 225.447 99.4496 225.495 99.5377 225.592C99.6347 225.689 99.6831 225.83 99.6831 226.015V229.664H105.275V226.015C105.275 225.83 105.319 225.689 105.407 225.592C105.504 225.495 105.64 225.447 105.817 225.447C105.993 225.447 106.125 225.495 106.213 225.592C106.31 225.689 106.358 225.83 106.358 226.015V234.383C106.358 234.559 106.31 234.7 106.213 234.806C106.125 234.902 105.993 234.951 105.817 234.951C105.64 234.951 105.504 234.902 105.407 234.806C105.319 234.7 105.275 234.559 105.275 234.383V230.602H99.6831V234.383C99.6831 234.559 99.6391 234.7 99.551 234.806C99.4628 234.902 99.3262 234.951 99.1412 234.951ZM110.532 234.977C110.092 234.977 109.695 234.894 109.342 234.726C108.999 234.55 108.726 234.312 108.523 234.012C108.32 233.713 108.219 233.378 108.219 233.008C108.219 232.532 108.338 232.157 108.576 231.884C108.823 231.611 109.223 231.417 109.779 231.303C110.343 231.188 111.109 231.131 112.079 231.131H112.674V231.831H112.092C111.378 231.831 110.814 231.867 110.4 231.937C109.995 231.999 109.708 232.109 109.541 232.268C109.382 232.426 109.303 232.651 109.303 232.942C109.303 233.303 109.426 233.598 109.673 233.827C109.928 234.056 110.272 234.171 110.704 234.171C111.056 234.171 111.365 234.087 111.629 233.92C111.902 233.752 112.114 233.523 112.264 233.233C112.422 232.942 112.502 232.607 112.502 232.228V230.721C112.502 230.175 112.392 229.782 112.171 229.545C111.951 229.298 111.59 229.174 111.087 229.174C110.779 229.174 110.47 229.214 110.162 229.293C109.854 229.373 109.528 229.5 109.184 229.677C109.06 229.738 108.955 229.76 108.867 229.743C108.778 229.716 108.708 229.668 108.655 229.597C108.602 229.527 108.571 229.448 108.563 229.36C108.554 229.263 108.571 229.17 108.615 229.082C108.668 228.994 108.748 228.923 108.853 228.87C109.241 228.677 109.624 228.536 110.003 228.447C110.382 228.359 110.744 228.315 111.087 228.315C111.642 228.315 112.101 228.408 112.462 228.593C112.823 228.769 113.092 229.042 113.268 229.412C113.445 229.774 113.533 230.241 113.533 230.814V234.396C113.533 234.572 113.489 234.709 113.401 234.806C113.321 234.902 113.202 234.951 113.044 234.951C112.876 234.951 112.748 234.902 112.66 234.806C112.572 234.709 112.528 234.572 112.528 234.396V233.365H112.647C112.577 233.7 112.44 233.986 112.237 234.224C112.043 234.462 111.801 234.647 111.51 234.779C111.219 234.911 110.893 234.977 110.532 234.977ZM116.048 234.951C115.872 234.951 115.739 234.902 115.651 234.806C115.563 234.709 115.519 234.572 115.519 234.396V228.884C115.519 228.707 115.563 228.575 115.651 228.487C115.739 228.39 115.867 228.342 116.035 228.342C116.202 228.342 116.33 228.39 116.418 228.487C116.515 228.575 116.563 228.707 116.563 228.884V230.02L116.418 229.862C116.603 229.351 116.903 228.967 117.317 228.712C117.74 228.447 118.225 228.315 118.771 228.315C119.282 228.315 119.705 228.408 120.04 228.593C120.384 228.778 120.639 229.06 120.807 229.439C120.974 229.809 121.058 230.28 121.058 230.853V234.396C121.058 234.572 121.009 234.709 120.912 234.806C120.824 234.902 120.696 234.951 120.529 234.951C120.353 234.951 120.216 234.902 120.119 234.806C120.031 234.709 119.987 234.572 119.987 234.396V230.919C119.987 230.32 119.868 229.884 119.63 229.611C119.401 229.329 119.031 229.188 118.52 229.188C117.929 229.188 117.458 229.373 117.105 229.743C116.762 230.104 116.59 230.589 116.59 231.197V234.396C116.59 234.766 116.409 234.951 116.048 234.951ZM123.561 234.951C123.384 234.951 123.252 234.902 123.164 234.806C123.076 234.709 123.032 234.572 123.032 234.396V225.989C123.032 225.813 123.076 225.68 123.164 225.592C123.252 225.495 123.384 225.447 123.561 225.447C123.728 225.447 123.86 225.495 123.957 225.592C124.054 225.68 124.103 225.813 124.103 225.989V231.289H124.129L126.839 228.699C126.962 228.584 127.068 228.496 127.156 228.434C127.253 228.373 127.381 228.342 127.539 228.342C127.68 228.342 127.791 228.381 127.87 228.461C127.949 228.531 127.985 228.624 127.976 228.738C127.976 228.844 127.923 228.959 127.817 229.082L124.935 231.818V231.237L128.068 234.184C128.192 234.308 128.253 234.427 128.253 234.541C128.253 234.656 128.209 234.753 128.121 234.832C128.042 234.911 127.936 234.951 127.804 234.951C127.645 234.951 127.517 234.92 127.421 234.858C127.324 234.788 127.205 234.687 127.064 234.554L124.129 231.845H124.103V234.396C124.103 234.766 123.922 234.951 123.561 234.951Z" fill="#434040"/>
<rect x="291.496" y="141.974" width="3.70118" height="54.989" rx="1.85059" fill="#83B868"/>
</g>
</svg>
