<?xml version="1.0" encoding="UTF-8" standalone="no"?>
<!DOCTYPE svg PUBLIC "-//W3C//DTD SVG 1.1//EN" "http://www.w3.org/Graphics/SVG/1.1/DTD/svg11.dtd">
<svg width="100%" height="100%" viewBox="0 0 1080 1080" version="1.1" xmlns="http://www.w3.org/2000/svg" xmlns:xlink="http://www.w3.org/1999/xlink" xml:space="preserve" xmlns:serif="http://www.serif.com/" style="fill-rule:evenodd;clip-rule:evenodd;stroke-linecap:round;stroke-linejoin:round;stroke-miterlimit:1.5;">
    <g transform="matrix(1,0,0,1,-9.54168,16.568)">
        <g transform="matrix(1.52719,0,0,1.59909,-280.043,-321.963)">
            <path d="M674.921,483.349C669.118,473.377 669.118,417.436 674.921,407.82C680.725,398.204 703.94,429.595 709.744,425.653C715.547,421.712 697.429,380.984 709.744,384.17C722.059,387.356 783.635,424.45 783.635,444.768C783.635,465.086 722.059,502.262 709.744,506.076C697.51,509.866 715.547,471.442 709.744,467.654C703.94,463.866 680.725,493.322 674.921,483.349Z" style="fill:rgb(238,36,110);stroke:rgb(255,130,183);stroke-width:0.64px;"/>
        </g>
        <g transform="matrix(1.52719,0,0,1.59909,-280.043,-72.7767)">
            <path d="M674.921,483.349C669.118,473.377 669.118,417.436 674.921,407.82C680.725,398.204 703.94,429.595 709.744,425.653C715.547,421.712 697.429,380.984 709.744,384.17C722.059,387.356 783.635,424.45 783.635,444.768C783.635,465.086 722.059,502.262 709.744,506.076C697.51,509.866 715.547,471.442 709.744,467.654C703.94,463.866 680.725,493.322 674.921,483.349Z" style="fill:rgb(2,175,141);"/>
        </g>
        <g transform="matrix(1.52719,0,0,1.59909,-129.229,-204.593)">
            <path d="M674.921,483.349C669.118,473.377 669.118,417.436 674.921,407.82C680.725,398.204 703.94,429.595 709.744,425.653C715.547,421.712 697.429,380.984 709.744,384.17C722.059,387.356 783.635,424.45 783.635,444.768C783.635,465.086 722.059,502.262 709.744,506.076C697.51,509.866 715.547,471.442 709.744,467.654C703.94,463.866 680.725,493.322 674.921,483.349Z" style="fill:rgb(100,84,230);"/>
        </g>
        <g transform="matrix(1.52719,0,0,1.59909,-281.365,-322.757)">
            <circle cx="752.848" cy="441.168" r="6.391" style="fill:white;stroke:rgb(255,133,184);stroke-width:0.64px;"/>
        </g>
        <g transform="matrix(1.52719,0,0,1.59909,-281.365,-73.5707)">
            <circle cx="752.848" cy="441.168" r="6.391" style="fill:white;stroke:rgb(235,235,235);stroke-width:0.64px;"/>
        </g>
        <g transform="matrix(1.52719,0,0,1.59909,-135.601,-203.775)">
            <circle cx="752.848" cy="441.168" r="6.391" style="fill:white;"/>
        </g>
    </g>
    <g transform="matrix(1,0,0,1,-20.0589,19.7099)">
        <g transform="matrix(1.4117,0,0,1.40923,-192.283,-292.25)">
            <g transform="matrix(90,0,0,90,642.489,434.281)">
            </g>
            <text x="333.554px" y="434.281px" style="font-family:'ArialRoundedMTBold', 'Arial Rounded MT Bold', sans-serif;font-size:90px;">READ<tspan x="586.239px " y="434.281px ">Y</tspan></text>
        </g>
        <g transform="matrix(2.14525,0,0,2.11385,-670.566,-413.24)">
            <g transform="matrix(86.6667,0,0,86.6667,656.819,434.281)">
            </g>
            <text x="333.554px" y="434.281px" style="font-family:'ArialRoundedMTBold', 'Arial Rounded MT Bold', sans-serif;font-size:86.667px;">GROUP</text>
        </g>
        <g transform="matrix(3.11561,0,0,3.19325,-839.124,-627.005)">
            <text x="333.554px" y="434.281px" style="font-family:'ArialRoundedMTBold', 'Arial Rounded MT Bold', sans-serif;font-size:86.667px;">GO!</text>
        </g>
    </g>
</svg>
