<?xml version="1.0" encoding="UTF-8" standalone="no"?><!DOCTYPE svg PUBLIC "-//W3C//DTD SVG 1.1//EN" "http://www.w3.org/Graphics/SVG/1.1/DTD/svg11.dtd"><svg width="100%" height="100%" viewBox="0 0 2250 2250" version="1.1" xmlns="http://www.w3.org/2000/svg" xmlns:xlink="http://www.w3.org/1999/xlink" xml:space="preserve" xmlns:serif="http://www.serif.com/" style="fill-rule:evenodd;clip-rule:evenodd;stroke-linecap:round;stroke-linejoin:round;stroke-miterlimit:1.5;"><path d="M1563.94,987.407l-0,-251.622l110.792,59.412l-0,-138.201l235.096,201.881l-235.096,204.244l-0,-128.002l-110.792,52.288Z" style="fill:#ee246e;stroke:#ff82b7;stroke-width:2.08px;"/><path d="M1563.94,1506.55l-0,-251.622l110.792,59.411l-0,-138.2l235.096,201.88l-235.096,204.245l-0,-128.002l-110.792,52.288Z" style="fill:#02af8d;"/><path d="M1878.13,1231.93l0,-251.622l110.792,59.411l0,-138.2l235.096,201.88l-235.096,204.245l0,-128.002l-110.792,52.288Z" style="fill:#6454e6;"/><ellipse cx="1809.12" cy="845.23" rx="20.333" ry="21.29" style="fill:#fff;stroke:#ff85b8;stroke-width:2.08px;"/><ellipse cx="1809.12" cy="1364.37" rx="20.333" ry="21.29" style="fill:#fff;stroke:#ebebeb;stroke-width:2.08px;"/><ellipse cx="2112.79" cy="1093.11" rx="20.333" ry="21.29" style="fill:#fff;"/><path d="M579.772,656.996l74.167,0c13.759,0 26.496,1.699 38.213,5.098c11.716,3.398 21.874,8.395 30.473,14.991c8.599,6.596 15.317,14.742 20.154,24.436c4.837,9.695 7.255,20.838 7.255,33.431c0,9.994 -1.504,18.49 -4.514,25.486c-3.01,6.996 -6.342,12.792 -9.997,17.39c-4.299,5.197 -9.136,9.594 -14.511,13.192l40.309,65.963l-80.617,-0l-32.247,-50.672l0,50.672l-68.685,-0l0,-199.987Zm68.685,98.344l3.548,0c8.169,0 15.102,-1.699 20.799,-5.097c5.697,-3.398 8.545,-9.094 8.545,-17.09c0,-7.995 -2.848,-13.692 -8.545,-17.09c-5.697,-3.398 -12.63,-5.097 -20.799,-5.097l-3.548,-0l0,44.374Z" style="fill-rule:nonzero;"/><path d="M767.77,656.996l126.729,0l0,52.471l-58.044,-0l0,22.187l57.077,-0l0,49.772l-57.077,-0l0,23.086l60.302,0l-0,52.471l-128.987,-0l0,-199.987Z" style="fill-rule:nonzero;"/><path d="M983.178,656.996l51.594,0l81.585,199.987l-67.718,-0l-7.095,-17.99l-65.138,-0l-7.094,17.99l-67.718,-0l81.584,-199.987Zm40.308,137.922l-14.511,-35.08l-14.511,35.08l29.022,-0Z" style="fill-rule:nonzero;"/><path d="M1121.19,856.983l-0,-199.987l59.656,0c20.208,0 38.212,2.099 54.013,6.297c15.801,4.197 29.13,10.494 39.986,18.889c10.856,8.395 19.133,18.839 24.83,31.332c5.697,12.493 8.545,26.935 8.545,43.326c0,16.39 -2.848,30.832 -8.545,43.325c-5.697,12.493 -13.974,22.937 -24.83,31.332c-10.856,8.395 -24.185,14.742 -39.986,19.039c-15.801,4.298 -33.805,6.447 -54.013,6.447l-59.656,-0Zm68.685,-56.968c16.123,0 28.592,-3.548 37.406,-10.644c8.814,-7.096 13.221,-17.94 13.221,-32.531c0,-14.592 -4.407,-25.386 -13.221,-32.382c-8.814,-6.996 -21.283,-10.494 -37.406,-10.494l-0,86.051Z" style="fill-rule:nonzero;"/><path d="M1352.4,770.932l-66.75,-113.936l76.424,0l24.83,42.276l24.508,-42.276l76.424,0l-66.75,113.936l-0,86.051l-68.686,-0l0,-86.051Z" style="fill-rule:nonzero;"/><path d="M243.424,978.215c-5.589,-4.62 -12.576,-8.157 -20.96,-10.611c-8.384,-2.454 -16.613,-3.681 -24.686,-3.681c-9.006,-0 -17.235,1.515 -24.687,4.547c-7.453,3.032 -13.896,7.218 -19.33,12.56c-5.434,5.341 -9.704,11.765 -12.809,19.272c-3.106,7.507 -4.658,15.591 -4.658,24.253c-0,8.662 1.708,16.746 5.123,24.253c3.416,7.507 8.074,13.931 13.974,19.272c5.9,5.341 12.809,9.528 20.727,12.56c7.919,3.031 16.381,4.547 25.386,4.547c10.558,-0 20.184,-2.093 28.878,-6.28c8.695,-4.186 16.148,-9.889 22.358,-17.107l-27.947,0l0,-60.632l119.707,0l-0,96.145c-7.142,11.838 -15.682,22.593 -25.618,32.265c-9.937,9.673 -21.038,17.973 -33.304,24.903c-12.266,6.929 -25.541,12.271 -39.825,16.024c-14.284,3.753 -29.034,5.63 -44.249,5.63c-22.358,0 -43.473,-3.898 -63.347,-11.693c-19.873,-7.796 -37.185,-18.479 -51.935,-32.049c-14.75,-13.57 -26.395,-29.594 -34.934,-48.072c-8.539,-18.479 -12.809,-38.401 -12.809,-59.766c-0,-20.788 4.037,-40.422 12.11,-58.9c8.074,-18.478 19.175,-34.575 33.304,-48.289c14.129,-13.715 30.897,-24.542 50.305,-32.482c19.408,-7.94 40.29,-11.91 62.648,-11.91c17.389,0 32.45,1.588 45.181,4.764c12.732,3.176 23.445,6.785 32.139,10.828c10.248,4.619 18.787,9.672 25.618,15.158l-56.36,74.491Z" style="fill-rule:nonzero;"/><path d="M370.118,879.904l107.131,-0c19.873,-0 38.272,2.454 55.195,7.362c16.924,4.909 31.596,12.127 44.017,21.655c12.421,9.528 22.125,21.293 29.111,35.296c6.987,14.003 10.481,30.1 10.481,48.289c-0,14.437 -2.174,26.707 -6.521,36.813c-4.348,10.105 -9.161,18.478 -14.44,25.119c-6.21,7.507 -13.197,13.859 -20.96,19.056l58.223,95.279l-116.446,-0l-46.579,-73.192l0,73.192l-99.212,-0l0,-288.869Zm99.212,142.052l5.124,0c11.8,0 21.814,-2.454 30.043,-7.362c8.229,-4.908 12.343,-13.137 12.343,-24.686c0,-11.549 -4.114,-19.778 -12.343,-24.686c-8.229,-4.908 -18.243,-7.363 -30.043,-7.363l-5.124,0l0,64.097Z" style="fill-rule:nonzero;"/><path d="M632.355,1024.56c0,-20.788 4.27,-40.422 12.809,-58.9c8.54,-18.478 20.184,-34.575 34.934,-48.289c14.75,-13.715 32.062,-24.542 51.935,-32.482c19.874,-7.94 40.989,-11.91 63.347,-11.91c22.358,0 43.473,3.97 63.347,11.91c19.873,7.94 37.185,18.767 51.935,32.482c14.75,13.714 26.394,29.811 34.934,48.289c8.539,18.478 12.809,38.112 12.809,58.9c-0,20.788 -4.27,40.421 -12.809,58.9c-8.54,18.478 -20.184,34.574 -34.934,48.289c-14.75,13.714 -32.062,24.541 -51.935,32.481c-19.874,7.94 -40.989,11.91 -63.347,11.91c-22.358,0 -43.473,-3.97 -63.347,-11.91c-19.873,-7.94 -37.185,-18.767 -51.935,-32.481c-14.75,-13.715 -26.394,-29.811 -34.934,-48.289c-8.539,-18.479 -12.809,-38.112 -12.809,-58.9Zm97.815,-0c-0,8.373 1.708,16.241 5.124,23.603c3.415,7.363 8.073,13.787 13.973,19.272c5.9,5.486 12.809,9.817 20.728,12.993c7.918,3.176 16.38,4.764 25.385,4.764c9.005,-0 17.467,-1.588 25.385,-4.764c7.919,-3.176 14.828,-7.507 20.728,-12.993c5.9,-5.485 10.557,-11.909 13.973,-19.272c3.416,-7.362 5.124,-15.23 5.124,-23.603c-0,-8.373 -1.708,-16.241 -5.124,-23.603c-3.416,-7.363 -8.073,-13.787 -13.973,-19.273c-5.9,-5.486 -12.809,-9.816 -20.728,-12.992c-7.918,-3.176 -16.38,-4.764 -25.385,-4.764c-9.005,-0 -17.467,1.588 -25.385,4.764c-7.919,3.176 -14.828,7.506 -20.728,12.992c-5.9,5.486 -10.558,11.91 -13.973,19.273c-3.416,7.362 -5.124,15.23 -5.124,23.603Z" style="fill-rule:nonzero;"/><path d="M1111.18,1176.13c-19.563,0 -37.263,-2.31 -53.099,-6.929c-15.837,-4.62 -29.345,-11.549 -40.524,-20.788c-11.178,-9.24 -19.795,-20.933 -25.851,-35.08c-6.055,-14.148 -9.082,-30.75 -9.082,-49.805l-0,-183.629l99.212,-0l-0,179.731c-0,10.105 2.251,17.829 6.754,23.17c4.502,5.341 12.032,8.012 22.59,8.012c10.558,0 18.088,-2.671 22.591,-8.012c4.502,-5.341 6.754,-13.065 6.754,-23.17l-0,-179.731l99.678,-0l-0,183.629c-0,19.055 -3.028,35.657 -9.083,49.805c-6.055,14.147 -14.75,25.84 -26.084,35.08c-11.334,9.239 -24.92,16.168 -40.756,20.788c-15.837,4.619 -33.537,6.929 -53.1,6.929Z" style="fill-rule:nonzero;"/><path d="M1513.15,989.908c-0,19.922 -3.726,36.884 -11.179,50.888c-7.453,14.003 -17.622,25.335 -30.509,33.997c-12.887,8.662 -27.947,15.014 -45.181,19.056c-17.234,4.042 -35.788,6.063 -55.661,6.063l-0,68.861l-99.213,-0l0,-288.869l99.213,-0c19.873,-0 38.427,2.021 55.661,6.063c17.234,4.042 32.294,10.394 45.181,19.056c12.887,8.662 23.056,19.994 30.509,33.997c7.453,14.003 11.179,30.966 11.179,50.888Zm-142.53,32.048l4.192,0c13.042,0 22.435,-2.815 28.18,-8.445c5.744,-5.63 8.617,-13.498 8.617,-23.603c-0,-10.105 -2.873,-17.973 -8.617,-23.603c-5.745,-5.63 -15.138,-8.446 -28.18,-8.446l-4.192,0l-0,64.097Z" style="fill-rule:nonzero;"/><path d="M688.483,1325.65c-7.55,-6.24 -16.988,-11.018 -28.313,-14.333c-11.325,-3.315 -22.441,-4.973 -33.347,-4.973c-12.164,0 -23.279,2.048 -33.346,6.143c-10.067,4.095 -18.771,9.75 -26.111,16.965c-7.34,7.215 -13.108,15.893 -17.302,26.033c-4.195,10.14 -6.292,21.06 -6.292,32.761c-0,11.7 2.307,22.62 6.921,32.76c4.614,10.14 10.906,18.818 18.875,26.033c7.97,7.215 17.303,12.87 27.999,16.965c10.696,4.095 22.126,6.143 34.29,6.143c14.261,-0 27.264,-2.828 39.009,-8.483c11.744,-5.655 21.811,-13.358 30.2,-23.108l-37.75,0l-0,-81.901l161.698,0l0,129.872c-9.647,15.99 -21.182,30.518 -34.605,43.583c-13.422,13.065 -28.417,24.278 -44.986,33.638c-16.568,9.36 -34.5,16.575 -53.794,21.645c-19.295,5.07 -39.219,7.606 -59.772,7.606c-30.201,-0 -58.723,-5.266 -85.568,-15.796c-26.845,-10.53 -50.23,-24.96 -70.154,-43.29c-19.924,-18.331 -35.653,-39.976 -47.188,-64.936c-11.535,-24.961 -17.302,-51.871 -17.302,-80.731c-0,-28.081 5.453,-54.601 16.358,-79.562c10.906,-24.96 25.901,-46.703 44.986,-65.228c19.086,-18.525 41.736,-33.15 67.952,-43.876c26.215,-10.725 54.423,-16.087 84.624,-16.087c23.489,-0 43.833,2.145 61.03,6.435c17.198,4.29 31.669,9.165 43.413,14.625c13.842,6.24 25.377,13.065 34.605,20.475l-76.13,100.622Z" style="fill-rule:nonzero;"/><path d="M850.181,1388.25c0,-28.081 5.768,-54.601 17.303,-79.562c11.535,-24.96 27.264,-46.703 47.188,-65.228c19.924,-18.525 43.308,-33.15 70.153,-43.876c26.845,-10.725 55.368,-16.087 85.568,-16.087c30.201,-0 58.723,5.362 85.568,16.087c26.845,10.726 50.23,25.351 70.154,43.876c19.924,18.525 35.653,40.268 47.188,65.228c11.535,24.961 17.302,51.481 17.302,79.562c0,28.08 -5.767,54.6 -17.302,79.561c-11.535,24.96 -27.264,46.703 -47.188,65.228c-19.924,18.525 -43.309,33.151 -70.154,43.876c-26.845,10.725 -55.367,16.088 -85.568,16.088c-30.2,-0 -58.723,-5.363 -85.568,-16.088c-26.845,-10.725 -50.229,-25.351 -70.153,-43.876c-19.924,-18.525 -35.653,-40.268 -47.188,-65.228c-11.535,-24.961 -17.303,-51.481 -17.303,-79.561Zm132.127,-0c0,11.31 2.307,21.937 6.921,31.883c4.614,9.945 10.906,18.622 18.876,26.032c7.969,7.411 17.302,13.261 27.998,17.551c10.696,4.29 22.126,6.435 34.29,6.435c12.164,-0 23.594,-2.145 34.29,-6.435c10.696,-4.29 20.029,-10.14 27.999,-17.551c7.969,-7.41 14.261,-16.087 18.875,-26.032c4.614,-9.946 6.921,-20.573 6.921,-31.883c0,-11.311 -2.307,-21.938 -6.921,-31.883c-4.614,-9.946 -10.906,-18.623 -18.875,-26.033c-7.97,-7.41 -17.303,-13.26 -27.999,-17.551c-10.696,-4.29 -22.126,-6.435 -34.29,-6.435c-12.164,0 -23.594,2.145 -34.29,6.435c-10.696,4.291 -20.029,10.141 -27.998,17.551c-7.97,7.41 -14.262,16.087 -18.876,26.033c-4.614,9.945 -6.921,20.572 -6.921,31.883Z" style="fill-rule:nonzero;"/><path d="M1315.77,1192.86l143.453,-0l-21.392,274.954l-100.669,-0l-21.392,-274.954Zm4.405,292.504l134.644,-0l-0,97.696l-134.644,0l-0,-97.696Z" style="fill-rule:nonzero;"/></svg>