<svg width="71" height="71" viewBox="0 0 71 71" fill="none" xmlns="http://www.w3.org/2000/svg">
<path d="M14.799 57.8203C14.9987 57.8203 34.2574 57.5097 34.2574 31.4394C34.2674 28.5146 33.4765 25.6429 31.9704 23.1356C30.4643 20.6284 28.3005 18.5814 25.7137 17.2165C23.1269 15.8516 20.2158 15.221 17.296 15.393C14.3763 15.565 11.5593 16.5331 9.15066 18.1923C6.74201 19.8514 4.83356 22.1384 3.63228 24.8051C2.43101 27.4719 1.98274 30.4166 2.3361 33.32C2.68945 36.2234 3.83095 38.9746 5.63679 41.2753C7.44264 43.5761 9.84392 45.3385 12.5802 46.3716V55.6016C12.5802 56.19 12.814 56.7544 13.2301 57.1704C13.6462 57.5865 14.2105 57.8203 14.799 57.8203ZM6.65616 31.4394C6.65616 28.3677 7.87639 25.4218 10.0484 23.2497C12.2204 21.0777 15.1663 19.8575 18.238 19.8575C21.3097 19.8575 24.2556 21.0777 26.4277 23.2497C28.5997 25.4218 29.8199 28.3677 29.8199 31.4394C29.8199 48.08 21.2112 52.0959 17.0177 53.0722V44.7519C17.0337 44.248 16.8776 43.7537 16.5751 43.3504C16.2726 42.9472 15.8418 42.6589 15.3537 42.5331C12.8835 41.902 10.6912 40.4719 9.1182 38.4654C7.54516 36.459 6.67957 33.9888 6.65616 31.4394Z" fill="#DCDCDC"/>
<path d="M49.3003 57.8207C49.4999 57.8207 68.7809 57.5101 68.7809 31.4398C68.7893 28.5163 67.9976 25.6463 66.4916 23.1407C64.9855 20.635 62.8225 18.5893 60.2368 17.2251C57.6512 15.8609 54.7415 15.2303 51.8231 15.4015C48.9047 15.5728 46.0887 16.5394 43.6804 18.1967C41.2721 19.854 39.3632 22.1387 38.1605 24.8033C36.9579 27.4679 36.5073 30.4108 36.8576 33.3132C37.208 36.2156 38.3459 38.9668 40.1481 41.2686C41.9503 43.5705 44.348 45.3354 47.0815 46.372V55.602C47.0815 56.1904 47.3153 56.7548 47.7314 57.1709C48.1475 57.587 48.7118 57.8207 49.3003 57.8207ZM41.1796 31.4398C41.1796 28.3681 42.3999 25.4222 44.5719 23.2502C46.7439 21.0781 49.6898 19.8579 52.7615 19.8579C55.8332 19.8579 58.7791 21.0781 60.9511 23.2502C63.1232 25.4222 64.3434 28.3681 64.3434 31.4398C64.3434 48.0804 55.7124 52.0963 51.519 53.0726V44.7523C51.5349 44.2484 51.3788 43.7541 51.0764 43.3509C50.7739 42.9476 50.3431 42.6593 49.8549 42.5335C47.3889 41.8982 45.2016 40.4663 43.6329 38.4603C42.0641 36.4542 41.2017 33.9863 41.1796 31.4398Z" fill="#DCDCDC"/>
</svg>
