<svg width="29" height="29" viewBox="0 0 29 29" fill="none" xmlns="http://www.w3.org/2000/svg">
<path d="M20.5417 25.375H8.45833M20.5417 25.375H21.512C22.8629 25.375 23.5383 25.375 24.0543 25.1116C24.5098 24.8796 24.8796 24.5098 25.1116 24.0555C25.375 23.5395 25.375 22.8629 25.375 21.512V11.1408C25.375 10.5971 25.375 10.3252 25.317 10.0666C25.2656 9.83591 25.1805 9.61402 25.0645 9.40808C24.9364 9.1785 24.7551 8.97913 24.3999 8.584L21.0709 4.88408C20.6589 4.42733 20.4498 4.19533 20.1997 4.02858C19.9741 3.87889 19.7249 3.7682 19.4626 3.70112C19.1678 3.625 18.85 3.625 18.2156 3.625H7.49167C6.13833 3.625 5.46167 3.625 4.9445 3.88842C4.48975 4.12004 4.12004 4.48975 3.88842 4.9445C3.625 5.46167 3.625 6.13833 3.625 7.49167V21.5083C3.625 22.8617 3.625 23.5383 3.88842 24.0543C4.12042 24.5098 4.48896 24.8796 4.9445 25.1116C5.46046 25.375 6.13713 25.375 7.48804 25.375H8.45833M20.5417 25.375V20.7797C20.5417 19.4288 20.5417 18.7521 20.2783 18.2362C20.0462 17.7813 19.6761 17.4116 19.221 17.1801C18.705 16.9167 18.0283 16.9167 16.675 16.9167H12.325C10.9717 16.9167 10.295 16.9167 9.77783 17.1801C9.32308 17.4117 8.95337 17.7814 8.72175 18.2362C8.45833 18.7533 8.45833 19.43 8.45833 20.7833V25.375M18.125 8.45833H10.875" stroke="#38930A" stroke-width="2.41667" stroke-linecap="round" stroke-linejoin="round"/>
</svg>
